<svg xmlns="http://www.w3.org/2000/svg" xmlns:xlink="http://www.w3.org/1999/xlink" xmlns:lucid="lucid" width="1951.17" height="1247.5"><g transform="translate(420 -74.91666666666663)" lucid:page-tab-id="vftX-5OtSK76"><path d="M1450.17 542c0 9.94-35.82 18-80 18-44.2 0-80-8.06-80-18V398c0-9.94 35.8-18 80-18 44.18 0 80 8.06 80 18z" stroke="#9e66e4" stroke-width="2" fill="#6db1ff"/><path d="M1450.17 398c0 9.94-35.82 18-80 18-44.2 0-80-8.06-80-18" stroke="#9e66e4" stroke-width="2" fill="none"/><use xlink:href="#a" transform="matrix(1,0,0,1,1295.1666666666665,421) translate(12.149999999999991 60.4625)"/><use xlink:href="#b" transform="matrix(1,0,0,1,1295.1666666666665,421) translate(111.95 60.4625)"/><use xlink:href="#c" transform="matrix(1,0,0,1,1295.1666666666665,421) translate(35.074999999999996 82.0625)"/><path d="M-369.83 101.92a6 6 0 0 1 6-6h268a6 6 0 0 1 6 6v148a6 6 0 0 1-6 6h-268a6 6 0 0 1-6-6z" stroke="#9e66e4" stroke-width="2" fill="#fbf0ff"/><use xlink:href="#d" transform="matrix(1,0,0,1,-357.83333333333337,107.91666666666663) translate(84.1 69.65)"/><path d="M176.06 901.92a6 6 0 0 1 6-6h268a6 6 0 0 1 6 6v148a6 6 0 0 1-6 6h-268a6 6 0 0 1-6-6z" stroke="#9e66e4" stroke-width="2" fill="#fbf0ff"/><use xlink:href="#e" transform="matrix(1,0,0,1,188.0560253138491,907.9166666666665) translate(26.224999999999994 69.65)"/><use xlink:href="#f" transform="matrix(1,0,0,1,188.0560253138491,907.9166666666665) translate(75.125 69.65)"/><use xlink:href="#g" transform="matrix(1,0,0,1,188.0560253138491,907.9166666666665) translate(131.975 69.65)"/><path d="M-49.83 101.92a6 6 0 0 1 6-6h268a6 6 0 0 1 6 6v148a6 6 0 0 1-6 6h-268a6 6 0 0 1-6-6z" stroke="#9e66e4" stroke-width="2" fill="#fbf0ff"/><use xlink:href="#h" transform="matrix(1,0,0,1,-37.83333333333337,107.91666666666663) translate(26.249999999999986 69.65)"/><use xlink:href="#f" transform="matrix(1,0,0,1,-37.83333333333337,107.91666666666663) translate(97.1 69.65)"/><use xlink:href="#i" transform="matrix(1,0,0,1,-37.83333333333337,107.91666666666663) translate(153.95 69.65)"/><path d="M270.17 101.92a6 6 0 0 1 6-6h268a6 6 0 0 1 6 6v148a6 6 0 0 1-6 6h-268a6 6 0 0 1-6-6z" stroke="#9e66e4" stroke-width="2" fill="#fbf0ff"/><use xlink:href="#h" transform="matrix(1,0,0,1,282.1666666666663,107.91666666666663) translate(16.19999999999999 69.65)"/><use xlink:href="#j" transform="matrix(1,0,0,1,282.1666666666663,107.91666666666663) translate(87.05 69.65)"/><use xlink:href="#k" transform="matrix(1,0,0,1,282.1666666666663,107.91666666666663) translate(150.95 69.65)"/><path d="M1192.67 175.92h25.4" stroke="#03dac6" stroke-width="3" fill="none"/><path d="M1192.7 177.42h-1.53v-3h1.53z" stroke="#03dac6" stroke-width=".05" fill="#03dac6"/><path d="M1226.22 175.92l-12.9 7.63v-15.27z" stroke="#03dac6" stroke-width="3" fill="#03dac6"/><path d="M590.17 101.92a6 6 0 0 1 6-6h268a6 6 0 0 1 6 6v148a6 6 0 0 1-6 6h-268a6 6 0 0 1-6-6z" stroke="#9e66e4" stroke-width="2" fill="#fbf0ff"/><use xlink:href="#l" transform="matrix(1,0,0,1,602.1666666666666,107.91666666666663) translate(58.175 69.65)"/><use xlink:href="#m" transform="matrix(1,0,0,1,602.1666666666666,107.91666666666663) translate(151.925 69.65)"/><path d="M176.06 681.92a6 6 0 0 1 6-6h268a6 6 0 0 1 6 6v148a6 6 0 0 1-6 6h-268a6 6 0 0 1-6-6z" stroke="#9e66e4" stroke-width="2" fill="#fbf0ff"/><use xlink:href="#n" transform="matrix(1,0,0,1,188.0560253138491,687.9166666666666) translate(48.69999999999999 69.65)"/><use xlink:href="#o" transform="matrix(1,0,0,1,188.0560253138491,687.9166666666666) translate(148.4 69.65)"/><path d="M540 681.92a6 6 0 0 1 6-6h268a6 6 0 0 1 6 6v148a6 6 0 0 1-6 6H546a6 6 0 0 1-6-6z" stroke="#9e66e4" stroke-width="2" fill="#fbf0ff"/><use xlink:href="#p" transform="matrix(1,0,0,1,552,687.9166666666666) translate(54.125 69.65)"/><use xlink:href="#q" transform="matrix(1,0,0,1,552,687.9166666666666) translate(108.025 69.65)"/><path d="M176.06 461.92a6 6 0 0 1 6-6h268a6 6 0 0 1 6 6v148a6 6 0 0 1-6 6h-268a6 6 0 0 1-6-6z" stroke="#9e66e4" stroke-width="2" fill="#fbf0ff"/><use xlink:href="#r" transform="matrix(1,0,0,1,188.0560253138491,467.91666666666663) translate(33.625 61.15)"/><use xlink:href="#s" transform="matrix(1,0,0,1,188.0560253138491,467.91666666666663) translate(136.47500000000002 61.15)"/><use xlink:href="#t" transform="matrix(1,0,0,1,188.0560253138491,467.91666666666663) translate(72.175 82.75)"/><use xlink:href="#u" transform="matrix(1,0,0,1,188.0560253138491,467.91666666666663) translate(146.925 82.75)"/><path d="M537.5 755.92h-69.33" stroke="#03dac6" stroke-width="3" fill="none"/><path d="M539 757.42h-1.54v-3H539z" stroke="#03dac6" stroke-width=".05" fill="#03dac6"/><path d="M460 755.92l12.9-7.64v15.27z" stroke="#03dac6" stroke-width="3" fill="#03dac6"/><path d="M-140 681.92a6 6 0 0 1 6-6h268a6 6 0 0 1 6 6v148a6 6 0 0 1-6 6h-268a6 6 0 0 1-6-6z" stroke="#9e66e4" stroke-width="2" fill="#e08fff"/><use xlink:href="#v" transform="matrix(1,0,0,1,-128.00000000000006,687.9166666666666) translate(58.599999999999994 69.65)"/><use xlink:href="#w" transform="matrix(1,0,0,1,-128.00000000000006,687.9166666666666) translate(139.5 69.65)"/><path d="M537.5 755.92h-33.47a6 6 0 0 1-6-6v-208a6 6 0 0 0-6-6h-23.86" stroke="#03dac6" stroke-width="3" fill="none"/><path d="M539 757.42h-1.54v-3H539z" stroke="#03dac6" stroke-width=".05" fill="#03dac6"/><path d="M460 535.92l12.9-7.64v15.27z" stroke="#03dac6" stroke-width="3" fill="#03dac6"/><path d="M537.5 755.92h-33.47a6 6 0 0 0-6 6v208a6 6 0 0 1-6 6h-23.86" stroke="#03dac6" stroke-width="3" fill="none"/><path d="M539 757.42h-1.54v-3H539z" stroke="#03dac6" stroke-width=".05" fill="#03dac6"/><path d="M460 975.92l12.9-7.64v15.27z" stroke="#03dac6" stroke-width="3" fill="#03dac6"/><path d="M173.56 755.92H152.1" stroke="#03dac6" stroke-width="3" fill="none"/><path d="M175.06 757.42h-1.54v-3h1.54z" stroke="#03dac6" stroke-width=".05" fill="#03dac6"/><path d="M143.95 755.92l12.9-7.64v15.27z" stroke="#03dac6" stroke-width="3" fill="#03dac6"/><path d="M1370.17 258.42V367.9" stroke="#03dac6" stroke-width="3" fill="none"/><path d="M1371.67 258.45h-3v-1.53h3z" stroke="#03dac6" stroke-width=".05" fill="#03dac6"/><path d="M1370.17 376.05l-7.64-12.9h15.27z" stroke="#03dac6" stroke-width="3" fill="#03dac6"/><path d="M80 1283.42c0 9.94-35.82 18-80 18s-80-8.06-80-18v-144c0-9.94 35.82-18 80-18s80 8.06 80 18z" stroke="#9e66e4" stroke-width="2" fill="#6db1ff"/><path d="M80 1139.42c0 9.94-35.82 18-80 18s-80-8.06-80-18" stroke="#9e66e4" stroke-width="2" fill="none"/><use xlink:href="#x" transform="matrix(1,0,0,1,-75.00000000000006,1162.4166666666665) translate(1.174999999999983 68.8375)"/><use xlink:href="#y" transform="matrix(1,0,0,1,-75.00000000000006,1162.4166666666665) translate(68.975 68.8375)"/><path d="M0 838.42v270.9" stroke="#03dac6" stroke-width="3" fill="none"/><path d="M1.5 838.46h-3v-1.54h3z" stroke="#03dac6" stroke-width=".05" fill="#03dac6"/><path d="M0 1117.47l-7.64-12.9H7.64z" stroke="#03dac6" stroke-width="3" fill="#03dac6"/><path d="M-396.98 761.1a10.3 10.3 0 0 1 0-10.37l48.96-84.13a10.43 10.43 0 0 1 9.02-5.18h98a10.43 10.43 0 0 1 9.02 5.18l48.96 84.13a10.3 10.3 0 0 1 0 10.37l-48.96 84.13a10.43 10.43 0 0 1-9.02 5.2h-98a10.43 10.43 0 0 1-9.02-5.2z" stroke="#9e66e4" stroke-width="2" fill="#e08fff"/><use xlink:href="#z" transform="matrix(1,0,0,1,-395,666.4166666666665) translate(69.555 14.4)"/><use xlink:href="#A" transform="matrix(1,0,0,1,-395,666.4166666666665) translate(73.03 36)"/><path d="M-142.5 755.92h-27" stroke="#03dac6" stroke-width="3" fill="none"/><path d="M-141 757.42h-1.54v-3h1.54z" stroke="#03dac6" stroke-width=".05" fill="#03dac6"/><path d="M-177.67 755.92l12.9-7.64v15.27z" stroke="#03dac6" stroke-width="3" fill="#03dac6"/><path d="M396.06 1283.42c0 9.94-35.82 18-80 18-44.2 0-80-8.06-80-18v-144c0-9.94 35.8-18 80-18 44.18 0 80 8.06 80 18z" stroke="#9e66e4" stroke-width="2" fill="#6db1ff"/><path d="M396.06 1139.42c0 9.94-35.82 18-80 18-44.2 0-80-8.06-80-18" stroke="#9e66e4" stroke-width="2" fill="none"/><use xlink:href="#e" transform="matrix(1,0,0,1,241.0560253138491,1162.4166666666665) translate(24.625 26.9625)"/><use xlink:href="#B" transform="matrix(1,0,0,1,241.0560253138491,1162.4166666666665) translate(73.525 26.9625)"/><use xlink:href="#C" transform="matrix(1,0,0,1,241.0560253138491,1162.4166666666665) translate(9.625 48.5625)"/><use xlink:href="#D" transform="matrix(1,0,0,1,241.0560253138491,1162.4166666666665) translate(60.525 48.5625)"/><use xlink:href="#E" transform="matrix(1,0,0,1,241.0560253138491,1162.4166666666665) translate(19.75 70.16250000000001)"/><use xlink:href="#F" transform="matrix(1,0,0,1,241.0560253138491,1162.4166666666665) translate(93.65 70.16250000000001)"/><use xlink:href="#G" transform="matrix(1,0,0,1,241.0560253138491,1162.4166666666665) translate(45 91.76250000000002)"/><use xlink:href="#H" transform="matrix(1,0,0,1,241.0560253138491,1162.4166666666665) translate(6.650000000000006 113.36250000000001)"/><path d="M316.06 1058.42v50.9" stroke="#03dac6" stroke-width="3" fill="none"/><path d="M317.56 1058.45h-3v-1.53h3z" stroke="#03dac6" stroke-width=".05" fill="#03dac6"/><path d="M316.06 1117.47l-7.64-12.9h15.27z" stroke="#03dac6" stroke-width="3" fill="#03dac6"/><path d="M-87.33 175.92h25.4" stroke="#03dac6" stroke-width="3" fill="none"/><path d="M-87.3 177.42h-1.53v-3h1.53z" stroke="#03dac6" stroke-width=".05" fill="#03dac6"/><path d="M-53.78 175.92l-12.9 7.63v-15.27z" stroke="#03dac6" stroke-width="3" fill="#03dac6"/><path d="M232.67 175.92h25.4" stroke="#03dac6" stroke-width="3" fill="none"/><path d="M232.7 177.42h-1.53v-3h1.54z" stroke="#03dac6" stroke-width=".05" fill="#03dac6"/><path d="M266.22 175.92l-12.9 7.63v-15.27z" stroke="#03dac6" stroke-width="3" fill="#03dac6"/><path d="M552.67 175.92h25.4" stroke="#03dac6" stroke-width="3" fill="none"/><path d="M552.7 177.42h-1.53v-3h1.54z" stroke="#03dac6" stroke-width=".05" fill="#03dac6"/><path d="M586.22 175.92l-12.9 7.63v-15.27z" stroke="#03dac6" stroke-width="3" fill="#03dac6"/><path d="M1370.17 562.5v187.42a6 6 0 0 1-6 6H1152.1" stroke="#03dac6" stroke-width="3" fill="none"/><path d="M1370.15 561h1.52v1.54h-3v-1.58z" stroke="#03dac6" stroke-width=".05" fill="#03dac6"/><path d="M1143.95 755.92l12.9-7.64v15.27z" stroke="#03dac6" stroke-width="3" fill="#03dac6"/><path d="M910.17 101.92a6 6 0 0 1 6-6h268a6 6 0 0 1 6 6v148a6 6 0 0 1-6 6h-268a6 6 0 0 1-6-6z" stroke="#9e66e4" stroke-width="2" fill="#fbf0ff"/><g><use xlink:href="#p" transform="matrix(1,0,0,1,922.1666666666666,107.91666666666663) translate(84.1 69.65)"/><use xlink:href="#I" transform="matrix(1,0,0,1,922.1666666666666,107.91666666666663) translate(138 69.65)"/></g><path d="M872.67 175.92h25.4" stroke="#03dac6" stroke-width="3" fill="none"/><path d="M872.7 177.42h-1.53v-3h1.54z" stroke="#03dac6" stroke-width=".05" fill="#03dac6"/><path d="M906.22 175.92l-12.9 7.63v-15.27z" stroke="#03dac6" stroke-width="3" fill="#03dac6"/><path d="M1230.17 101.92a6 6 0 0 1 6-6h268a6 6 0 0 1 6 6v148a6 6 0 0 1-6 6h-268a6 6 0 0 1-6-6z" stroke="#9e66e4" stroke-width="2" fill="#fbf0ff"/><g><use xlink:href="#p" transform="matrix(1,0,0,1,1242.1666666666665,107.91666666666663) translate(61.625 69.65)"/><use xlink:href="#J" transform="matrix(1,0,0,1,1242.1666666666665,107.91666666666663) translate(115.525 69.65)"/></g><path d="M860 681.92a6 6 0 0 1 6-6h268a6 6 0 0 1 6 6v148a6 6 0 0 1-6 6H866a6 6 0 0 1-6-6z" stroke="#9e66e4" stroke-width="2" fill="#fbf0ff"/><g><use xlink:href="#a" transform="matrix(1,0,0,1,872,687.9166666666666) translate(37.724999999999994 69.65)"/><use xlink:href="#K" transform="matrix(1,0,0,1,872,687.9166666666666) translate(137.525 69.65)"/><use xlink:href="#L" transform="matrix(1,0,0,1,872,687.9166666666666) translate(168.425 69.65)"/></g><path d="M857.5 755.92h-25.4" stroke="#03dac6" stroke-width="3" fill="none"/><path d="M859 757.42h-1.54v-3H859z" stroke="#03dac6" stroke-width=".05" fill="#03dac6"/><path d="M823.95 755.92l12.9-7.64v15.27z" stroke="#03dac6" stroke-width="3" fill="#03dac6"/><defs><path d="M24 0v-248h195v40H76v63h132v40H76v65h150V0H24" id="M"/><path d="M128 0H69L1-190h53L99-40l48-150h52" id="N"/><path d="M185-48c-13 30-37 53-82 52C43 2 14-33 14-96s30-98 90-98c62 0 83 45 84 108H66c0 31 8 55 39 56 18 0 30-7 34-22zm-45-69c5-46-57-63-70-21-2 6-4 13-4 21h74" id="O"/><path d="M135-194c87-1 58 113 63 194h-50c-7-57 23-157-34-157-59 0-34 97-39 157H25l-1-190h47c2 12-1 28 3 38 12-26 28-41 61-42" id="P"/><path d="M115-3C79 11 28 4 28-45v-112H4v-33h27l15-45h31v45h36v33H77v99c-1 23 16 31 38 25v30" id="Q"/><path d="M169-182c-1-43-94-46-97-3 18 66 151 10 154 114 3 95-165 93-204 36-6-8-10-19-12-30l50-8c3 46 112 56 116 5-17-69-150-10-154-114-4-87 153-88 188-35 5 8 8 18 10 28" id="R"/><path d="M110-194c64 0 96 36 96 99 0 64-35 99-97 99-61 0-95-36-95-99 0-62 34-99 96-99zm-1 164c35 0 45-28 45-65 0-40-10-65-43-65-34 0-45 26-45 65 0 36 10 65 43 65" id="S"/><path d="M135-150c-39-12-60 13-60 57V0H25l-1-190h47c2 13-1 29 3 40 6-28 27-53 61-41v41" id="T"/><g id="a"><use transform="matrix(0.05,0,0,0.05,0,0)" xlink:href="#M"/><use transform="matrix(0.05,0,0,0.05,12,0)" xlink:href="#N"/><use transform="matrix(0.05,0,0,0.05,22,0)" xlink:href="#O"/><use transform="matrix(0.05,0,0,0.05,32,0)" xlink:href="#P"/><use transform="matrix(0.05,0,0,0.05,42.95,0)" xlink:href="#Q"/><use transform="matrix(0.05,0,0,0.05,48.900000000000006,0)" xlink:href="#R"/><use transform="matrix(0.05,0,0,0.05,60.900000000000006,0)" xlink:href="#Q"/><use transform="matrix(0.05,0,0,0.05,66.85000000000001,0)" xlink:href="#S"/><use transform="matrix(0.05,0,0,0.05,77.80000000000001,0)" xlink:href="#T"/><use transform="matrix(0.05,0,0,0.05,84.80000000000001,0)" xlink:href="#O"/></g><path d="M24-248c120-7 223 5 221 122C244-46 201 0 124 0H24v-248zM76-40c74 7 117-18 117-86 0-67-45-88-117-82v168" id="U"/><path d="M182-130c37 4 62 22 62 59C244 23 116-4 24 0v-248c84 5 203-23 205 63 0 31-19 50-47 55zM76-148c40-3 101 13 101-30 0-44-60-28-101-31v61zm0 110c48-3 116 14 116-37 0-48-69-32-116-35v72" id="V"/><g id="b"><use transform="matrix(0.05,0,0,0.05,0,0)" xlink:href="#U"/><use transform="matrix(0.05,0,0,0.05,12.950000000000001,0)" xlink:href="#V"/></g><path d="M133-34C117-15 103 5 69 4 32 3 11-16 11-54c-1-60 55-63 116-61 1-26-3-47-28-47-18 1-26 9-28 27l-52-2c7-38 36-58 82-57s74 22 75 68l1 82c-1 14 12 18 25 15v27c-30 8-71 5-69-32zm-48 3c29 0 43-24 42-57-32 0-66-3-65 30 0 17 8 27 23 27" id="W"/><path d="M135-194c52 0 70 43 70 98 0 56-19 99-73 100-30 1-46-15-58-35L72 0H24l1-261h50v104c11-23 29-37 60-37zM114-30c31 0 40-27 40-66 0-37-7-63-39-63s-41 28-41 65c0 36 8 64 40 64" id="X"/><path d="M137-138c1-29-70-34-71-4 15 46 118 7 119 86 1 83-164 76-172 9l43-7c4 19 20 25 44 25 33 8 57-30 24-41C81-84 22-81 20-136c-2-80 154-74 161-7" id="Y"/><g id="c"><use transform="matrix(0.05,0,0,0.05,0,0)" xlink:href="#U"/><use transform="matrix(0.05,0,0,0.05,12.950000000000001,0)" xlink:href="#W"/><use transform="matrix(0.05,0,0,0.05,22.950000000000003,0)" xlink:href="#Q"/><use transform="matrix(0.05,0,0,0.05,28.900000000000002,0)" xlink:href="#W"/><use transform="matrix(0.05,0,0,0.05,38.900000000000006,0)" xlink:href="#X"/><use transform="matrix(0.05,0,0,0.05,49.85000000000001,0)" xlink:href="#W"/><use transform="matrix(0.05,0,0,0.05,59.85,0)" xlink:href="#Y"/><use transform="matrix(0.05,0,0,0.05,69.85000000000001,0)" xlink:href="#O"/></g><path d="M67-125c0 53 21 87 73 88 37 1 54-22 65-47l45 17C233-25 199 4 140 4 58 4 20-42 15-125 8-235 124-281 211-232c18 10 29 29 36 50l-46 12c-8-25-30-41-62-41-52 0-71 34-72 86" id="Z"/><path d="M220-157c-53 9-28 100-34 157h-49v-107c1-27-5-49-29-50C55-147 81-57 75 0H25l-1-190h47c2 12-1 28 3 38 10-53 101-56 108 0 13-22 24-43 59-42 82 1 51 116 57 194h-49v-107c-1-25-5-48-29-50" id="aa"/><path d="M88-194c31-1 46 15 58 34l-1-101h50l1 261h-48c-2-10 0-23-3-31C134-8 116 4 84 4 32 4 16-41 15-95c0-56 19-97 73-99zm17 164c33 0 40-30 41-66 1-37-9-64-41-64s-38 30-39 65c0 43 13 65 39 65" id="ab"/><g id="d"><use transform="matrix(0.05,0,0,0.05,0,0)" xlink:href="#Z"/><use transform="matrix(0.05,0,0,0.05,12.950000000000001,0)" xlink:href="#S"/><use transform="matrix(0.05,0,0,0.05,23.900000000000002,0)" xlink:href="#aa"/><use transform="matrix(0.05,0,0,0.05,39.900000000000006,0)" xlink:href="#aa"/><use transform="matrix(0.05,0,0,0.05,55.900000000000006,0)" xlink:href="#W"/><use transform="matrix(0.05,0,0,0.05,65.9,0)" xlink:href="#P"/><use transform="matrix(0.05,0,0,0.05,76.85000000000001,0)" xlink:href="#ab"/></g><path d="M240-174c0 40-23 61-54 70L253 0h-59l-57-94H76V0H24v-248c93 4 217-23 216 74zM76-134c48-2 112 12 112-38 0-48-66-32-112-35v73" id="ac"/><g id="e"><use transform="matrix(0.05,0,0,0.05,0,0)" xlink:href="#ac"/><use transform="matrix(0.05,0,0,0.05,12.950000000000001,0)" xlink:href="#O"/><use transform="matrix(0.05,0,0,0.05,22.950000000000003,0)" xlink:href="#W"/><use transform="matrix(0.05,0,0,0.05,32.95,0)" xlink:href="#ab"/></g><path d="M230 0l2-204L168 0h-37L68-204 70 0H24v-248h70l56 185 57-185h69V0h-46" id="ad"/><path d="M25 0v-261h50V0H25" id="ae"/><g id="f"><use transform="matrix(0.05,0,0,0.05,0,0)" xlink:href="#ad"/><use transform="matrix(0.05,0,0,0.05,14.950000000000001,0)" xlink:href="#S"/><use transform="matrix(0.05,0,0,0.05,25.900000000000002,0)" xlink:href="#ab"/><use transform="matrix(0.05,0,0,0.05,36.85,0)" xlink:href="#O"/><use transform="matrix(0.05,0,0,0.05,46.85,0)" xlink:href="#ae"/></g><path d="M24-248c93 1 206-16 204 79-1 75-69 88-152 82V0H24v-248zm52 121c47 0 100 7 100-41 0-47-54-39-100-39v80" id="af"/><path d="M25-224v-37h50v37H25zM75 22c2 45-34 59-81 51V38c22 5 31-5 31-27v-201h50V22" id="ag"/><path d="M190-63c-7 42-38 67-86 67-59 0-84-38-90-98-12-110 154-137 174-36l-49 2c-2-19-15-32-35-32-30 0-35 28-38 64-6 74 65 87 74 30" id="ah"/><path d="M25-224v-37h50v37H25zM25 0v-190h50V0H25" id="ai"/><g id="g"><use transform="matrix(0.05,0,0,0.05,0,0)" xlink:href="#af"/><use transform="matrix(0.05,0,0,0.05,12,0)" xlink:href="#T"/><use transform="matrix(0.05,0,0,0.05,19,0)" xlink:href="#S"/><use transform="matrix(0.05,0,0,0.05,29.950000000000003,0)" xlink:href="#ag"/><use transform="matrix(0.05,0,0,0.05,34.95,0)" xlink:href="#O"/><use transform="matrix(0.05,0,0,0.05,44.95,0)" xlink:href="#ah"/><use transform="matrix(0.05,0,0,0.05,54.95,0)" xlink:href="#Q"/><use transform="matrix(0.05,0,0,0.05,60.900000000000006,0)" xlink:href="#ai"/><use transform="matrix(0.05,0,0,0.05,65.9,0)" xlink:href="#S"/><use transform="matrix(0.05,0,0,0.05,76.85000000000001,0)" xlink:href="#P"/><use transform="matrix(0.05,0,0,0.05,87.80000000000001,0)" xlink:href="#Y"/></g><g id="h"><use transform="matrix(0.05,0,0,0.05,0,0)" xlink:href="#U"/><use transform="matrix(0.05,0,0,0.05,12.950000000000001,0)" xlink:href="#S"/><use transform="matrix(0.05,0,0,0.05,23.900000000000002,0)" xlink:href="#aa"/><use transform="matrix(0.05,0,0,0.05,39.900000000000006,0)" xlink:href="#W"/><use transform="matrix(0.05,0,0,0.05,49.900000000000006,0)" xlink:href="#ai"/><use transform="matrix(0.05,0,0,0.05,54.900000000000006,0)" xlink:href="#P"/></g><path d="M114-157C55-157 80-60 75 0H25v-261h50l-1 109c12-26 28-41 61-42 86-1 58 113 63 194h-50c-7-57 23-157-34-157" id="aj"/><path d="M195-6C206 82 75 100 31 46c-4-6-6-13-8-21l49-6c3 16 16 24 34 25 40 0 42-37 40-79-11 22-30 35-61 35-53 0-70-43-70-97 0-56 18-96 73-97 30 0 46 14 59 34l2-30h47zm-90-29c32 0 41-27 41-63 0-35-9-62-40-62-32 0-39 29-40 63 0 36 9 62 39 62" id="ak"/><g id="i"><use transform="matrix(0.05,0,0,0.05,0,0)" xlink:href="#Z"/><use transform="matrix(0.05,0,0,0.05,12.950000000000001,0)" xlink:href="#aj"/><use transform="matrix(0.05,0,0,0.05,23.900000000000002,0)" xlink:href="#W"/><use transform="matrix(0.05,0,0,0.05,33.900000000000006,0)" xlink:href="#P"/><use transform="matrix(0.05,0,0,0.05,44.85000000000001,0)" xlink:href="#ak"/><use transform="matrix(0.05,0,0,0.05,55.80000000000001,0)" xlink:href="#O"/><use transform="matrix(0.05,0,0,0.05,65.80000000000001,0)" xlink:href="#Y"/></g><g id="j"><use transform="matrix(0.05,0,0,0.05,0,0)" xlink:href="#M"/><use transform="matrix(0.05,0,0,0.05,12,0)" xlink:href="#N"/><use transform="matrix(0.05,0,0,0.05,22,0)" xlink:href="#O"/><use transform="matrix(0.05,0,0,0.05,32,0)" xlink:href="#P"/><use transform="matrix(0.05,0,0,0.05,42.95,0)" xlink:href="#Q"/><use transform="matrix(0.05,0,0,0.05,48.900000000000006,0)" xlink:href="#Y"/></g><path d="M67-125c0 54 23 88 75 88 28 0 53-7 68-21v-34h-60v-39h108v91C232-14 192 4 140 4 58 4 20-42 15-125 8-236 126-280 215-234c19 10 29 26 37 47l-47 15c-11-23-29-39-63-39-53 1-75 33-75 86" id="al"/><g id="k"><use transform="matrix(0.05,0,0,0.05,0,0)" xlink:href="#al"/><use transform="matrix(0.05,0,0,0.05,14,0)" xlink:href="#O"/><use transform="matrix(0.05,0,0,0.05,24,0)" xlink:href="#P"/><use transform="matrix(0.05,0,0,0.05,34.95,0)" xlink:href="#O"/><use transform="matrix(0.05,0,0,0.05,44.95,0)" xlink:href="#T"/><use transform="matrix(0.05,0,0,0.05,51.95,0)" xlink:href="#W"/><use transform="matrix(0.05,0,0,0.05,61.95,0)" xlink:href="#Q"/><use transform="matrix(0.05,0,0,0.05,67.9,0)" xlink:href="#O"/><use transform="matrix(0.05,0,0,0.05,77.9,0)" xlink:href="#ab"/></g><path d="M199 0l-22-63H83L61 0H9l90-248h61L250 0h-51zm-33-102l-36-108c-10 38-24 72-36 108h72" id="am"/><g id="l"><use transform="matrix(0.05,0,0,0.05,0,0)" xlink:href="#am"/><use transform="matrix(0.05,0,0,0.05,12.950000000000001,0)" xlink:href="#ak"/><use transform="matrix(0.05,0,0,0.05,23.900000000000002,0)" xlink:href="#ak"/><use transform="matrix(0.05,0,0,0.05,34.85,0)" xlink:href="#T"/><use transform="matrix(0.05,0,0,0.05,41.85,0)" xlink:href="#O"/><use transform="matrix(0.05,0,0,0.05,51.85,0)" xlink:href="#ak"/><use transform="matrix(0.05,0,0,0.05,62.800000000000004,0)" xlink:href="#W"/><use transform="matrix(0.05,0,0,0.05,72.80000000000001,0)" xlink:href="#Q"/><use transform="matrix(0.05,0,0,0.05,78.75000000000001,0)" xlink:href="#O"/></g><g id="m"><use transform="matrix(0.05,0,0,0.05,0,0)" xlink:href="#R"/><use transform="matrix(0.05,0,0,0.05,12,0)" xlink:href="#Q"/><use transform="matrix(0.05,0,0,0.05,17.95,0)" xlink:href="#S"/><use transform="matrix(0.05,0,0,0.05,28.899999999999995,0)" xlink:href="#T"/><use transform="matrix(0.05,0,0,0.05,35.9,0)" xlink:href="#O"/></g><path d="M85 4C-2 5 27-109 22-190h50c7 57-23 150 33 157 60-5 35-97 40-157h50l1 190h-47c-2-12 1-28-3-38-12 25-28 42-61 42" id="an"/><g id="n"><use transform="matrix(0.05,0,0,0.05,0,0)" xlink:href="#U"/><use transform="matrix(0.05,0,0,0.05,12.950000000000001,0)" xlink:href="#ai"/><use transform="matrix(0.05,0,0,0.05,17.950000000000003,0)" xlink:href="#Y"/><use transform="matrix(0.05,0,0,0.05,27.950000000000003,0)" xlink:href="#Q"/><use transform="matrix(0.05,0,0,0.05,33.900000000000006,0)" xlink:href="#T"/><use transform="matrix(0.05,0,0,0.05,40.900000000000006,0)" xlink:href="#ai"/><use transform="matrix(0.05,0,0,0.05,45.900000000000006,0)" xlink:href="#X"/><use transform="matrix(0.05,0,0,0.05,56.85,0)" xlink:href="#an"/><use transform="matrix(0.05,0,0,0.05,67.80000000000001,0)" xlink:href="#Q"/><use transform="matrix(0.05,0,0,0.05,73.75000000000001,0)" xlink:href="#O"/><use transform="matrix(0.05,0,0,0.05,83.75000000000001,0)" xlink:href="#ab"/></g><g id="o"><use transform="matrix(0.05,0,0,0.05,0,0)" xlink:href="#M"/><use transform="matrix(0.05,0,0,0.05,12,0)" xlink:href="#N"/><use transform="matrix(0.05,0,0,0.05,22,0)" xlink:href="#O"/><use transform="matrix(0.05,0,0,0.05,32,0)" xlink:href="#P"/><use transform="matrix(0.05,0,0,0.05,42.95,0)" xlink:href="#Q"/><use transform="matrix(0.05,0,0,0.05,48.900000000000006,0)" xlink:href="#Y"/></g><g id="p"><use transform="matrix(0.05,0,0,0.05,0,0)" xlink:href="#M"/><use transform="matrix(0.05,0,0,0.05,12,0)" xlink:href="#N"/><use transform="matrix(0.05,0,0,0.05,22,0)" xlink:href="#O"/><use transform="matrix(0.05,0,0,0.05,32,0)" xlink:href="#P"/><use transform="matrix(0.05,0,0,0.05,42.95,0)" xlink:href="#Q"/></g><g id="q"><use transform="matrix(0.05,0,0,0.05,0,0)" xlink:href="#R"/><use transform="matrix(0.05,0,0,0.05,12,0)" xlink:href="#an"/><use transform="matrix(0.05,0,0,0.05,22.950000000000003,0)" xlink:href="#X"/><use transform="matrix(0.05,0,0,0.05,33.900000000000006,0)" xlink:href="#Y"/><use transform="matrix(0.05,0,0,0.05,43.900000000000006,0)" xlink:href="#ah"/><use transform="matrix(0.05,0,0,0.05,53.900000000000006,0)" xlink:href="#T"/><use transform="matrix(0.05,0,0,0.05,60.900000000000006,0)" xlink:href="#ai"/><use transform="matrix(0.05,0,0,0.05,65.9,0)" xlink:href="#X"/><use transform="matrix(0.05,0,0,0.05,76.85000000000001,0)" xlink:href="#O"/><use transform="matrix(0.05,0,0,0.05,86.85000000000001,0)" xlink:href="#T"/></g><path d="M231 0h-52l-39-155L100 0H48L-1-190h46L77-45c9-52 24-97 36-145h53l37 145 32-145h46" id="ao"/><g id="r"><use transform="matrix(0.05,0,0,0.05,0,0)" xlink:href="#ad"/><use transform="matrix(0.05,0,0,0.05,14.950000000000001,0)" xlink:href="#ai"/><use transform="matrix(0.05,0,0,0.05,19.950000000000003,0)" xlink:href="#ab"/><use transform="matrix(0.05,0,0,0.05,30.900000000000006,0)" xlink:href="#ab"/><use transform="matrix(0.05,0,0,0.05,41.85000000000001,0)" xlink:href="#ae"/><use transform="matrix(0.05,0,0,0.05,46.85000000000001,0)" xlink:href="#O"/><use transform="matrix(0.05,0,0,0.05,56.85,0)" xlink:href="#ao"/><use transform="matrix(0.05,0,0,0.05,70.85000000000001,0)" xlink:href="#W"/><use transform="matrix(0.05,0,0,0.05,80.85000000000001,0)" xlink:href="#T"/><use transform="matrix(0.05,0,0,0.05,87.85000000000001,0)" xlink:href="#O"/></g><path d="M67-93c0 74 22 123 53 168H70C40 30 18-18 18-93s22-123 52-168h50c-32 44-53 94-53 168" id="ap"/><path d="M76-54c-1 42 2 86-19 110H24C36 42 46 24 48 0H25v-54h51" id="aq"/><g id="s"><use transform="matrix(0.05,0,0,0.05,0,0)" xlink:href="#ap"/><use transform="matrix(0.05,0,0,0.05,5.95,0)" xlink:href="#R"/><use transform="matrix(0.05,0,0,0.05,17.95,0)" xlink:href="#ai"/><use transform="matrix(0.05,0,0,0.05,22.95,0)" xlink:href="#ab"/><use transform="matrix(0.05,0,0,0.05,33.9,0)" xlink:href="#O"/><use transform="matrix(0.05,0,0,0.05,43.9,0)" xlink:href="#ah"/><use transform="matrix(0.05,0,0,0.05,53.900000000000006,0)" xlink:href="#W"/><use transform="matrix(0.05,0,0,0.05,63.900000000000006,0)" xlink:href="#T"/><use transform="matrix(0.05,0,0,0.05,70.9,0)" xlink:href="#Y"/><use transform="matrix(0.05,0,0,0.05,80.9,0)" xlink:href="#aq"/></g><g id="t"><use transform="matrix(0.05,0,0,0.05,0,0)" xlink:href="#ae"/><use transform="matrix(0.05,0,0,0.05,5,0)" xlink:href="#S"/><use transform="matrix(0.05,0,0,0.05,15.950000000000001,0)" xlink:href="#ak"/><use transform="matrix(0.05,0,0,0.05,26.900000000000002,0)" xlink:href="#ak"/><use transform="matrix(0.05,0,0,0.05,37.85,0)" xlink:href="#ai"/><use transform="matrix(0.05,0,0,0.05,42.85,0)" xlink:href="#P"/><use transform="matrix(0.05,0,0,0.05,53.800000000000004,0)" xlink:href="#ak"/><use transform="matrix(0.05,0,0,0.05,64.75,0)" xlink:href="#aq"/></g><path d="M24 0v-54h51V0H24" id="ar"/><path d="M102-93c0 74-22 123-52 168H0C30 29 54-18 53-93c0-74-22-123-53-168h50c30 45 52 94 52 168" id="as"/><g id="u"><use transform="matrix(0.05,0,0,0.05,0,0)" xlink:href="#O"/><use transform="matrix(0.05,0,0,0.05,10,0)" xlink:href="#Q"/><use transform="matrix(0.05,0,0,0.05,15.949999999999998,0)" xlink:href="#ah"/><use transform="matrix(0.05,0,0,0.05,25.950000000000003,0)" xlink:href="#ar"/><use transform="matrix(0.05,0,0,0.05,30.950000000000003,0)" xlink:href="#as"/></g><g id="v"><use transform="matrix(0.05,0,0,0.05,0,0)" xlink:href="#ad"/><use transform="matrix(0.05,0,0,0.05,14.950000000000001,0)" xlink:href="#O"/><use transform="matrix(0.05,0,0,0.05,24.950000000000003,0)" xlink:href="#Y"/><use transform="matrix(0.05,0,0,0.05,34.95,0)" xlink:href="#Y"/><use transform="matrix(0.05,0,0,0.05,44.95,0)" xlink:href="#W"/><use transform="matrix(0.05,0,0,0.05,54.95,0)" xlink:href="#ak"/><use transform="matrix(0.05,0,0,0.05,65.9,0)" xlink:href="#O"/></g><path d="M147 0L96-86 75-71V0H25v-261h50v150l67-79h53l-66 74L201 0h-54" id="at"/><g id="w"><use transform="matrix(0.05,0,0,0.05,0,0)" xlink:href="#V"/><use transform="matrix(0.05,0,0,0.05,12.950000000000001,0)" xlink:href="#T"/><use transform="matrix(0.05,0,0,0.05,19.950000000000003,0)" xlink:href="#S"/><use transform="matrix(0.05,0,0,0.05,30.900000000000006,0)" xlink:href="#at"/><use transform="matrix(0.05,0,0,0.05,40.900000000000006,0)" xlink:href="#O"/><use transform="matrix(0.05,0,0,0.05,50.900000000000006,0)" xlink:href="#T"/></g><path d="M140-251c80 0 125 45 125 126S219 4 139 4C58 4 15-44 15-125s44-126 125-126zm-1 214c52 0 73-35 73-88 0-50-21-86-72-86-52 0-73 35-73 86s22 88 72 88" id="au"/><path d="M144 0l-44-69L55 0H2l70-98-66-92h53l41 62 40-62h54l-67 91 71 99h-54" id="av"/><g id="x"><use transform="matrix(0.05,0,0,0.05,0,0)" xlink:href="#au"/><use transform="matrix(0.05,0,0,0.05,14,0)" xlink:href="#an"/><use transform="matrix(0.05,0,0,0.05,24.950000000000003,0)" xlink:href="#Q"/><use transform="matrix(0.05,0,0,0.05,30.900000000000002,0)" xlink:href="#X"/><use transform="matrix(0.05,0,0,0.05,41.85,0)" xlink:href="#S"/><use transform="matrix(0.05,0,0,0.05,52.800000000000004,0)" xlink:href="#av"/></g><g id="y"><use transform="matrix(0.05,0,0,0.05,0,0)" xlink:href="#U"/><use transform="matrix(0.05,0,0,0.05,12.950000000000001,0)" xlink:href="#W"/><use transform="matrix(0.05,0,0,0.05,22.950000000000003,0)" xlink:href="#Q"/><use transform="matrix(0.05,0,0,0.05,28.900000000000002,0)" xlink:href="#W"/><use transform="matrix(0.05,0,0,0.05,38.900000000000006,0)" xlink:href="#X"/><use transform="matrix(0.05,0,0,0.05,49.85000000000001,0)" xlink:href="#W"/><use transform="matrix(0.05,0,0,0.05,59.85,0)" xlink:href="#Y"/><use transform="matrix(0.05,0,0,0.05,69.85000000000001,0)" xlink:href="#O"/></g><g id="z"><use transform="matrix(0.05,0,0,0.05,0,0)" xlink:href="#M"/><use transform="matrix(0.05,0,0,0.05,12,0)" xlink:href="#av"/><use transform="matrix(0.05,0,0,0.05,22,0)" xlink:href="#Q"/><use transform="matrix(0.05,0,0,0.05,27.950000000000003,0)" xlink:href="#O"/><use transform="matrix(0.05,0,0,0.05,37.95,0)" xlink:href="#T"/><use transform="matrix(0.05,0,0,0.05,44.95,0)" xlink:href="#P"/><use transform="matrix(0.05,0,0,0.05,55.900000000000006,0)" xlink:href="#W"/><use transform="matrix(0.05,0,0,0.05,65.9,0)" xlink:href="#ae"/></g><path d="M123 10C108 53 80 86 19 72V37c35 8 53-11 59-39L3-190h52l48 148c12-52 28-100 44-148h51" id="aw"/><g id="A"><use transform="matrix(0.05,0,0,0.05,0,0)" xlink:href="#R"/><use transform="matrix(0.05,0,0,0.05,12,0)" xlink:href="#aw"/><use transform="matrix(0.05,0,0,0.05,22,0)" xlink:href="#Y"/><use transform="matrix(0.05,0,0,0.05,32,0)" xlink:href="#Q"/><use transform="matrix(0.05,0,0,0.05,37.95,0)" xlink:href="#O"/><use transform="matrix(0.05,0,0,0.05,47.95,0)" xlink:href="#aa"/></g><g id="B"><use transform="matrix(0.05,0,0,0.05,0,0)" xlink:href="#ad"/><use transform="matrix(0.05,0,0,0.05,14.950000000000001,0)" xlink:href="#S"/><use transform="matrix(0.05,0,0,0.05,25.900000000000002,0)" xlink:href="#ab"/><use transform="matrix(0.05,0,0,0.05,36.85,0)" xlink:href="#O"/><use transform="matrix(0.05,0,0,0.05,46.85,0)" xlink:href="#ae"/></g><g id="C"><use transform="matrix(0.05,0,0,0.05,0,0)" xlink:href="#R"/><use transform="matrix(0.05,0,0,0.05,12,0)" xlink:href="#Q"/><use transform="matrix(0.05,0,0,0.05,17.95,0)" xlink:href="#S"/><use transform="matrix(0.05,0,0,0.05,28.899999999999995,0)" xlink:href="#T"/><use transform="matrix(0.05,0,0,0.05,35.9,0)" xlink:href="#O"/></g><g id="D"><use transform="matrix(0.05,0,0,0.05,0,0)" xlink:href="#U"/><use transform="matrix(0.05,0,0,0.05,12.950000000000001,0)" xlink:href="#W"/><use transform="matrix(0.05,0,0,0.05,22.950000000000003,0)" xlink:href="#Q"/><use transform="matrix(0.05,0,0,0.05,28.900000000000002,0)" xlink:href="#W"/><use transform="matrix(0.05,0,0,0.05,38.900000000000006,0)" xlink:href="#X"/><use transform="matrix(0.05,0,0,0.05,49.85000000000001,0)" xlink:href="#W"/><use transform="matrix(0.05,0,0,0.05,59.85,0)" xlink:href="#Y"/><use transform="matrix(0.05,0,0,0.05,69.85000000000001,0)" xlink:href="#O"/></g><g id="E"><use transform="matrix(0.05,0,0,0.05,0,0)" xlink:href="#ap"/><use transform="matrix(0.05,0,0,0.05,5.95,0)" xlink:href="#M"/><use transform="matrix(0.05,0,0,0.05,17.95,0)" xlink:href="#ae"/><use transform="matrix(0.05,0,0,0.05,22.95,0)" xlink:href="#W"/><use transform="matrix(0.05,0,0,0.05,32.95,0)" xlink:href="#Y"/><use transform="matrix(0.05,0,0,0.05,42.95,0)" xlink:href="#Q"/><use transform="matrix(0.05,0,0,0.05,48.900000000000006,0)" xlink:href="#ai"/><use transform="matrix(0.05,0,0,0.05,53.900000000000006,0)" xlink:href="#ah"/><use transform="matrix(0.05,0,0,0.05,63.900000000000006,0)" xlink:href="#aq"/></g><path d="M140-251c80 0 125 45 125 126 0 70-33 111-92 124 6 28 34 38 68 31l-1 36C177 83 129 55 120 2 51-6 15-50 15-125c0-81 44-126 125-126zm-1 214c52 0 73-35 73-88 0-50-21-86-72-86-52 0-73 35-73 86s22 88 72 88" id="ax"/><path d="M24 0v-248h52v208h133V0H24" id="ay"/><g id="F"><use transform="matrix(0.05,0,0,0.05,0,0)" xlink:href="#R"/><use transform="matrix(0.05,0,0,0.05,12,0)" xlink:href="#ax"/><use transform="matrix(0.05,0,0,0.05,26,0)" xlink:href="#ay"/></g><g id="G"><use transform="matrix(0.05,0,0,0.05,0,0)" xlink:href="#R"/><use transform="matrix(0.05,0,0,0.05,12,0)" xlink:href="#O"/><use transform="matrix(0.05,0,0,0.05,22,0)" xlink:href="#T"/><use transform="matrix(0.05,0,0,0.05,29,0)" xlink:href="#N"/><use transform="matrix(0.05,0,0,0.05,39,0)" xlink:href="#O"/><use transform="matrix(0.05,0,0,0.05,49,0)" xlink:href="#T"/><use transform="matrix(0.05,0,0,0.05,55,0)" xlink:href="#aq"/></g><path d="M84 4C32 4 15-41 15-95c0-55 18-99 73-99 29 0 47 12 58 34l2-30h48l-1 265h-49V-32C136-9 114 4 84 4zm21-34c32 0 41-29 41-66 0-36-9-64-40-64-33 0-39 30-40 65 0 43 13 65 39 65" id="az"/><g id="H"><use transform="matrix(0.05,0,0,0.05,0,0)" xlink:href="#af"/><use transform="matrix(0.05,0,0,0.05,12,0)" xlink:href="#S"/><use transform="matrix(0.05,0,0,0.05,22.950000000000003,0)" xlink:href="#Y"/><use transform="matrix(0.05,0,0,0.05,32.95,0)" xlink:href="#Q"/><use transform="matrix(0.05,0,0,0.05,38.900000000000006,0)" xlink:href="#ak"/><use transform="matrix(0.05,0,0,0.05,49.85000000000001,0)" xlink:href="#T"/><use transform="matrix(0.05,0,0,0.05,56.85,0)" xlink:href="#O"/><use transform="matrix(0.05,0,0,0.05,66.85000000000001,0)" xlink:href="#R"/><use transform="matrix(0.05,0,0,0.05,78.85000000000001,0)" xlink:href="#az"/><use transform="matrix(0.05,0,0,0.05,89.80000000000001,0)" xlink:href="#ae"/><use transform="matrix(0.05,0,0,0.05,94.80000000000001,0)" xlink:href="#aq"/><use transform="matrix(0.05,0,0,0.05,99.80000000000001,0)" xlink:href="#O"/><use transform="matrix(0.05,0,0,0.05,109.80000000000001,0)" xlink:href="#Q"/><use transform="matrix(0.05,0,0,0.05,115.75,0)" xlink:href="#ah"/><use transform="matrix(0.05,0,0,0.05,125.75,0)" xlink:href="#ar"/><use transform="matrix(0.05,0,0,0.05,130.75,0)" xlink:href="#as"/></g><g id="I"><use transform="matrix(0.05,0,0,0.05,0,0)" xlink:href="#V"/><use transform="matrix(0.05,0,0,0.05,12.950000000000001,0)" xlink:href="#an"/><use transform="matrix(0.05,0,0,0.05,23.900000000000002,0)" xlink:href="#Y"/></g><g id="J"><use transform="matrix(0.05,0,0,0.05,0,0)" xlink:href="#af"/><use transform="matrix(0.05,0,0,0.05,12,0)" xlink:href="#T"/><use transform="matrix(0.05,0,0,0.05,19,0)" xlink:href="#S"/><use transform="matrix(0.05,0,0,0.05,29.950000000000003,0)" xlink:href="#ab"/><use transform="matrix(0.05,0,0,0.05,40.900000000000006,0)" xlink:href="#an"/><use transform="matrix(0.05,0,0,0.05,51.85,0)" xlink:href="#ah"/><use transform="matrix(0.05,0,0,0.05,61.85,0)" xlink:href="#O"/><use transform="matrix(0.05,0,0,0.05,71.85000000000001,0)" xlink:href="#T"/></g><g id="K"><use transform="matrix(0.05,0,0,0.05,0,0)" xlink:href="#U"/><use transform="matrix(0.05,0,0,0.05,12.950000000000001,0)" xlink:href="#V"/></g><g id="L"><use transform="matrix(0.05,0,0,0.05,0,0)" xlink:href="#Z"/><use transform="matrix(0.05,0,0,0.05,12.950000000000001,0)" xlink:href="#ae"/><use transform="matrix(0.05,0,0,0.05,17.950000000000003,0)" xlink:href="#ai"/><use transform="matrix(0.05,0,0,0.05,22.950000000000003,0)" xlink:href="#O"/><use transform="matrix(0.05,0,0,0.05,32.95,0)" xlink:href="#P"/><use transform="matrix(0.05,0,0,0.05,43.900000000000006,0)" xlink:href="#Q"/></g></defs></g></svg>