<svg xmlns="http://www.w3.org/2000/svg" xmlns:xlink="http://www.w3.org/1999/xlink" xmlns:lucid="lucid" width="2342" height="1941.82"><g transform="translate(921 -1419)" lucid:page-tab-id="WQqZKx-nSkfo"><path d="M-1000 1000h2500v2500h-2500z" fill-opacity="0"/><path d="M1340 2262c0 9.94-35.82 18-80 18s-80-8.06-80-18v-144c0-9.94 35.82-18 80-18s80 8.06 80 18z" stroke="#9e66e4" stroke-width="2" fill="#d7faf5"/><path d="M1340 2118c0 9.94-35.82 18-80 18s-80-8.06-80-18" stroke="#9e66e4" stroke-width="2" fill="none"/><use xlink:href="#a" transform="matrix(1,0,0,1,1192,2148) translate(36.599999999999994 51.9)"/><use xlink:href="#b" transform="matrix(1,0,0,1,1192,2148) translate(28.074999999999996 73.5)"/><path d="M-900 1448.58a6 6 0 0 1 6-6h268a6 6 0 0 1 6 6v148a6 6 0 0 1-6 6h-268a6 6 0 0 1-6-6z" stroke="#9e66e4" stroke-width="2" fill="#edf5ff"/><use xlink:href="#c" transform="matrix(1,0,0,1,-888,1454.5833333333333) translate(84.1 69.65)"/><path d="M480 2146a6 6 0 0 1 6-6h268a6 6 0 0 1 6 6v148a6 6 0 0 1-6 6H486a6 6 0 0 1-6-6z" stroke="#9e66e4" stroke-width="2" fill="#edf5ff"/><use xlink:href="#d" transform="matrix(1,0,0,1,492,2152) translate(21.224999999999994 69.65)"/><use xlink:href="#e" transform="matrix(1,0,0,1,492,2152) translate(114.025 69.65)"/><use xlink:href="#f" transform="matrix(1,0,0,1,492,2152) translate(167.925 69.65)"/><path d="M-580 1448.58a6 6 0 0 1 6-6h268a6 6 0 0 1 6 6v148a6 6 0 0 1-6 6h-268a6 6 0 0 1-6-6z" stroke="#9e66e4" stroke-width="2" fill="#edf5ff"/><use xlink:href="#g" transform="matrix(1,0,0,1,-568,1454.5833333333333) translate(26.249999999999986 69.65)"/><use xlink:href="#h" transform="matrix(1,0,0,1,-568,1454.5833333333333) translate(97.1 69.65)"/><use xlink:href="#i" transform="matrix(1,0,0,1,-568,1454.5833333333333) translate(153.95 69.65)"/><path d="M-260 1448.58a6 6 0 0 1 6-6H14a6 6 0 0 1 6 6v148a6 6 0 0 1-6 6h-268a6 6 0 0 1-6-6z" stroke="#9e66e4" stroke-width="2" fill="#edf5ff"/><use xlink:href="#g" transform="matrix(1,0,0,1,-248.00000000000034,1454.5833333333333) translate(16.19999999999999 69.65)"/><use xlink:href="#j" transform="matrix(1,0,0,1,-248.00000000000034,1454.5833333333333) translate(87.05 69.65)"/><use xlink:href="#k" transform="matrix(1,0,0,1,-248.00000000000034,1454.5833333333333) translate(150.95 69.65)"/><path d="M150 3000.5a6 6 0 0 1 6-6h268a6 6 0 0 1 6 6v148a6 6 0 0 1-6 6H156a6 6 0 0 1-6-6z" stroke="#9e66e4" stroke-width="2" fill="#e08fff"/><use xlink:href="#l" transform="matrix(1,0,0,1,161.9999999999999,3006.5) translate(54.69999999999999 69.65)"/><use xlink:href="#m" transform="matrix(1,0,0,1,161.9999999999999,3006.5) translate(152.39999999999998 69.65)"/><path d="M-220 3000.5a6 6 0 0 1 6-6H54a6 6 0 0 1 6 6v148a6 6 0 0 1-6 6h-268a6 6 0 0 1-6-6z" stroke="#9e66e4" stroke-width="2" fill="#e08fff"/><use xlink:href="#n" transform="matrix(1,0,0,1,-208,3006.5) translate(68.14999999999999 69.65)"/><use xlink:href="#o" transform="matrix(1,0,0,1,-208,3006.5) translate(140 69.65)"/><path d="M520 3000.5a6 6 0 0 1 6-6h268a6 6 0 0 1 6 6v148a6 6 0 0 1-6 6H526a6 6 0 0 1-6-6z" stroke="#9e66e4" stroke-width="2" fill="#e08fff"/><use xlink:href="#p" transform="matrix(1,0,0,1,532,3006.5) translate(84.1 69.65)"/><use xlink:href="#q" transform="matrix(1,0,0,1,532,3006.5) translate(138 69.65)"/><path d="M893.02 3079.7a10.3 10.3 0 0 1 0-10.4l48.96-84.1a10.43 10.43 0 0 1 9.02-5.2h98a10.43 10.43 0 0 1 9.02 5.2l48.96 84.1a10.3 10.3 0 0 1 0 10.4l-48.96 84.1a10.43 10.43 0 0 1-9.02 5.2h-98a10.43 10.43 0 0 1-9.02-5.2z" stroke="#9e66e4" stroke-width="2" fill="#e08fff"/><use xlink:href="#r" transform="matrix(1,0,0,1,895.0000000000001,2985) translate(69.555 14.4)"/><use xlink:href="#s" transform="matrix(1,0,0,1,895.0000000000001,2985) translate(73.03 36)"/><path d="M700 2542c0 9.94-35.82 18-80 18s-80-8.06-80-18v-144c0-9.94 35.82-18 80-18s80 8.06 80 18z" stroke="#9e66e4" stroke-width="2" fill="#d7faf5"/><path d="M700 2398c0 9.94-35.82 18-80 18s-80-8.06-80-18" stroke="#9e66e4" stroke-width="2" fill="none"/><use xlink:href="#t" transform="matrix(1,0,0,1,551.9999999999993,2428) translate(17.625 20.39999999999999)"/><use xlink:href="#u" transform="matrix(1,0,0,1,551.9999999999993,2428) translate(66.525 20.39999999999999)"/><use xlink:href="#v" transform="matrix(1,0,0,1,551.9999999999993,2428) translate(2.625 41.99999999999999)"/><use xlink:href="#w" transform="matrix(1,0,0,1,551.9999999999993,2428) translate(53.525 41.99999999999999)"/><use xlink:href="#x" transform="matrix(1,0,0,1,551.9999999999993,2428) translate(12.75 63.599999999999994)"/><use xlink:href="#y" transform="matrix(1,0,0,1,551.9999999999993,2428) translate(86.65 63.599999999999994)"/><use xlink:href="#z" transform="matrix(1,0,0,1,551.9999999999993,2428) translate(38 85.20000000000002)"/><use xlink:href="#A" transform="matrix(1,0,0,1,551.9999999999993,2428) translate(-0.3499999999999943 106.80000000000001)"/><path d="M620 2302.5v65.4" stroke="#03dac6" stroke-width="3" fill="none"/><path d="M621.48 2302.54h-2.96V2301h2.96z" stroke="#03dac6" stroke-width=".05" fill="#03dac6"/><path d="M620 2376.05l-7.64-12.9h15.28z" stroke="#03dac6" stroke-width="3" fill="#03dac6"/><path d="M-617.5 1522.58h25.4" stroke="#03dac6" stroke-width="3" fill="none"/><path d="M-617.46 1524.06H-619v-2.95h1.54z" stroke="#03dac6" stroke-width=".05" fill="#03dac6"/><path d="M-583.95 1522.58l-12.9 7.64v-15.27z" stroke="#03dac6" stroke-width="3" fill="#03dac6"/><path d="M-297.5 1522.58h25.4" stroke="#03dac6" stroke-width="3" fill="none"/><path d="M-297.46 1524.06H-299v-2.95h1.54z" stroke="#03dac6" stroke-width=".05" fill="#03dac6"/><path d="M-263.95 1522.58l-12.9 7.64v-15.27z" stroke="#03dac6" stroke-width="3" fill="#03dac6"/><path d="M700 1446a6 6 0 0 1 6-6h268a6 6 0 0 1 6 6v148a6 6 0 0 1-6 6H706a6 6 0 0 1-6-6z" stroke="#9e66e4" stroke-width="2" fill="#edf5ff"/><use xlink:href="#p" transform="matrix(1,0,0,1,711.9999999999993,1452) translate(72.14999999999999 69.65)"/><use xlink:href="#B" transform="matrix(1,0,0,1,711.9999999999993,1452) translate(126.05 69.65)"/><path d="M860 1836a6 6 0 0 1 6-6h268a6 6 0 0 1 6 6v148a6 6 0 0 1-6 6H866a6 6 0 0 1-6-6z" stroke="#9e66e4" stroke-width="2" fill="#edf5ff"/><use xlink:href="#C" transform="matrix(1,0,0,1,872,1842) translate(4.724999999999994 69.65)"/><use xlink:href="#D" transform="matrix(1,0,0,1,872,1842) translate(54.675 69.65)"/><use xlink:href="#E" transform="matrix(1,0,0,1,872,1842) translate(118.525 69.65)"/><use xlink:href="#F" transform="matrix(1,0,0,1,872,1842) translate(172.425 69.65)"/><path d="M80 1982c0 9.94-35.82 18-80 18s-80-8.06-80-18v-144c0-9.94 35.82-18 80-18s80 8.06 80 18z" stroke="#9e66e4" stroke-width="2" fill="#d7faf5"/><path d="M80 1838c0 9.94-35.82 18-80 18s-80-8.06-80-18" stroke="#9e66e4" stroke-width="2" fill="none"/><use xlink:href="#G" transform="matrix(1,0,0,1,-68,1868) translate(26.65 63.15)"/><use xlink:href="#H" transform="matrix(1,0,0,1,-68,1868) translate(83.45 63.15)"/><path d="M480 1836a6 6 0 0 1 6-6h268a6 6 0 0 1 6 6v148a6 6 0 0 1-6 6H486a6 6 0 0 1-6-6z" stroke="#9e66e4" stroke-width="2" fill="#edf5ff"/><use xlink:href="#I" transform="matrix(1,0,0,1,491.9999999999993,1842) translate(13.724999999999994 69.65)"/><use xlink:href="#e" transform="matrix(1,0,0,1,491.9999999999993,1842) translate(109.52499999999999 69.65)"/><use xlink:href="#F" transform="matrix(1,0,0,1,491.9999999999993,1842) translate(163.42499999999998 69.65)"/><path d="M840 1602.5V1709a6 6 0 0 1-6 6H626a6 6 0 0 0-6 6v96.9" stroke="#03dac6" stroke-width="3" fill="none"/><path d="M841.48 1602.54h-2.96V1601h2.96z" stroke="#03dac6" stroke-width=".05" fill="#03dac6"/><path d="M620 1826.05l-7.64-12.9h15.28z" stroke="#03dac6" stroke-width="3" fill="#03dac6"/><path d="M840 1602.5V1709a6 6 0 0 0 6 6h148a6 6 0 0 1 6 6v96.9" stroke="#03dac6" stroke-width="3" fill="none"/><path d="M841.48 1602.54h-2.96V1601h2.96z" stroke="#03dac6" stroke-width=".05" fill="#03dac6"/><path d="M1000 1826.05l-7.64-12.9h15.28z" stroke="#03dac6" stroke-width="3" fill="#03dac6"/><path d="M1000 1992.5V2184a6 6 0 0 0 6 6h161.9" stroke="#03dac6" stroke-width="3" fill="none"/><path d="M1001.48 1992.54h-2.96V1991h2.96z" stroke="#03dac6" stroke-width=".05" fill="#03dac6"/><path d="M1176.05 2190l-12.9 7.64v-15.28z" stroke="#03dac6" stroke-width="3" fill="#03dac6"/><path d="M60 1448.58a6 6 0 0 1 6-6h268a6 6 0 0 1 6 6v148a6 6 0 0 1-6 6H66a6 6 0 0 1-6-6z" stroke="#9e66e4" stroke-width="2" fill="#edf5ff"/><use xlink:href="#J" transform="matrix(1,0,0,1,71.99999999999955,1454.5833333333333) translate(25.474999999999994 69.65)"/><use xlink:href="#K" transform="matrix(1,0,0,1,71.99999999999955,1454.5833333333333) translate(65.32499999999999 69.65)"/><use xlink:href="#L" transform="matrix(1,0,0,1,71.99999999999955,1454.5833333333333) translate(87.225 69.65)"/><use xlink:href="#M" transform="matrix(1,0,0,1,71.99999999999955,1454.5833333333333) translate(136.77499999999998 69.65)"/><path d="M22.5 1522.58h25.4" stroke="#03dac6" stroke-width="3" fill="none"/><path d="M22.54 1524.06H21v-2.95h1.54z" stroke="#03dac6" stroke-width=".05" fill="#03dac6"/><path d="M56.05 1522.58l-12.9 7.64v-15.27z" stroke="#03dac6" stroke-width="3" fill="#03dac6"/><path d="M342.5 1522.58h25.4" stroke="#03dac6" stroke-width="3" fill="none"/><path d="M342.54 1524.06H341v-2.95h1.54z" stroke="#03dac6" stroke-width=".05" fill="#03dac6"/><path d="M376.05 1522.58l-12.9 7.64v-15.27z" stroke="#03dac6" stroke-width="3" fill="#03dac6"/><path d="M140 1836a6 6 0 0 1 6-6h268a6 6 0 0 1 6 6v148a6 6 0 0 1-6 6H146a6 6 0 0 1-6-6z" stroke="#9e66e4" stroke-width="2" fill="#edf5ff"/><use xlink:href="#p" transform="matrix(1,0,0,1,152,1842) translate(2.2749999999999915 61.15)"/><use xlink:href="#N" transform="matrix(1,0,0,1,152,1842) translate(56.175 61.15)"/><use xlink:href="#O" transform="matrix(1,0,0,1,152,1842) translate(128.025 61.15)"/><use xlink:href="#P" transform="matrix(1,0,0,1,152,1842) translate(204.825 61.15)"/><use xlink:href="#Q" transform="matrix(1,0,0,1,152,1842) translate(91.6 82.75)"/><path d="M477.5 1910h-45.4" stroke="#03dac6" stroke-width="3" fill="none"/><path d="M479 1911.47h-1.54v-2.94H479z" stroke="#03dac6" stroke-width=".05" fill="#03dac6"/><path d="M423.95 1910l12.9-7.64v15.28z" stroke="#03dac6" stroke-width="3" fill="#03dac6"/><path d="M137.5 1910H92.1" stroke="#03dac6" stroke-width="3" fill="none"/><path d="M139 1911.47h-1.54v-2.94H139z" stroke="#03dac6" stroke-width=".05" fill="#03dac6"/><path d="M83.95 1910l12.9-7.64v15.28z" stroke="#03dac6" stroke-width="3" fill="#03dac6"/><path d="M380 1448.58a6 6 0 0 1 6-6h268a6 6 0 0 1 6 6v148a6 6 0 0 1-6 6H386a6 6 0 0 1-6-6z" stroke="#9e66e4" stroke-width="2" fill="#edf5ff"/><use xlink:href="#p" transform="matrix(1,0,0,1,391.99999999999943,1454.5833333333333) translate(18.649999999999977 61.15)"/><use xlink:href="#R" transform="matrix(1,0,0,1,391.99999999999943,1454.5833333333333) translate(72.54999999999998 61.15)"/><use xlink:href="#S" transform="matrix(1,0,0,1,391.99999999999943,1454.5833333333333) translate(141.5 61.15)"/><use xlink:href="#T" transform="matrix(1,0,0,1,391.99999999999943,1454.5833333333333) translate(171.5 61.15)"/><use xlink:href="#U" transform="matrix(1,0,0,1,391.99999999999943,1454.5833333333333) translate(15.249999999999986 82.75)"/><use xlink:href="#V" transform="matrix(1,0,0,1,391.99999999999943,1454.5833333333333) translate(84.14999999999999 82.75)"/><use xlink:href="#W" transform="matrix(1,0,0,1,391.99999999999943,1454.5833333333333) translate(181.85000000000002 82.75)"/><path d="M662.5 1522.58h16.2a1.3 1.3 0 0 0 1.3-1.3 1.3 1.3 0 0 1 1.3-1.28h6.6" stroke="#03dac6" stroke-width="3" fill="none"/><path d="M662.54 1524.06H661v-2.95h1.54z" stroke="#03dac6" stroke-width=".05" fill="#03dac6"/><path d="M696.05 1520l-12.9 7.64v-15.28z" stroke="#03dac6" stroke-width="3" fill="#03dac6"/><path d="M860 2446a6 6 0 0 1 6-6h268a6 6 0 0 1 6 6v148a6 6 0 0 1-6 6H866a6 6 0 0 1-6-6z" stroke="#9e66e4" stroke-width="2" fill="#d7faf5"/><g><use xlink:href="#X" transform="matrix(1,0,0,1,872,2452) translate(76.1 69.65)"/></g><path d="M860 2706a6 6 0 0 1 6-6h268a6 6 0 0 1 6 6v148a6 6 0 0 1-6 6H866a6 6 0 0 1-6-6z" stroke="#9e66e4" stroke-width="2" fill="#d7faf5"/><g><use xlink:href="#Y" transform="matrix(1,0,0,1,872.0000000000001,2712) translate(40.625 61.15)"/><use xlink:href="#Z" transform="matrix(1,0,0,1,872.0000000000001,2712) translate(121.525 61.15)"/><use xlink:href="#aa" transform="matrix(1,0,0,1,872.0000000000001,2712) translate(184.425 61.15)"/><use xlink:href="#ab" transform="matrix(1,0,0,1,872.0000000000001,2712) translate(8.799999999999983 82.75)"/><use xlink:href="#ac" transform="matrix(1,0,0,1,872.0000000000001,2712) translate(103.55 82.75)"/><use xlink:href="#E" transform="matrix(1,0,0,1,872.0000000000001,2712) translate(158.45000000000002 82.75)"/><use xlink:href="#ad" transform="matrix(1,0,0,1,872.0000000000001,2712) translate(212.35000000000002 82.75)"/></g><path d="M1000 1992.5v435.4" stroke="#03dac6" stroke-width="3" fill="none"/><path d="M1001.48 1992.54h-2.96V1991h2.96z" stroke="#03dac6" stroke-width=".05" fill="#03dac6"/><path d="M1000 2436.05l-7.64-12.9h15.28z" stroke="#03dac6" stroke-width="3" fill="#03dac6"/><path d="M1000 2602.5v85.4" stroke="#03dac6" stroke-width="3" fill="none"/><path d="M1001.48 2602.54h-2.96V2601h2.96z" stroke="#03dac6" stroke-width=".05" fill="#03dac6"/><path d="M1000 2696.05l-7.64-12.9h15.28z" stroke="#03dac6" stroke-width="3" fill="#03dac6"/><path d="M620 1992.5v135.4" stroke="#03dac6" stroke-width="3" fill="none"/><path d="M621.48 1992.54h-2.96V1991h2.96z" stroke="#03dac6" stroke-width=".05" fill="#03dac6"/><path d="M620 2136.05l-7.64-12.9h15.28z" stroke="#03dac6" stroke-width="3" fill="#03dac6"/><path d="M1000 2862.5v105.4" stroke="#03dac6" stroke-width="3" fill="none"/><path d="M1001.48 2862.54h-2.96V2861h2.96z" stroke="#03dac6" stroke-width=".05" fill="#03dac6"/><path d="M1000 2976.05l-7.64-12.9h15.28z" stroke="#03dac6" stroke-width="3" fill="#03dac6"/><path d="M889.12 3074.5h-77" stroke="#03dac6" stroke-width="3" fill="none"/><path d="M890.68 3073.3l-.06 1.2.06 1.2.05.28h-1.65v-2.95h1.65z" stroke="#03dac6" stroke-width=".05" fill="#03dac6"/><path d="M803.95 3074.5l12.9-7.64v15.28z" stroke="#03dac6" stroke-width="3" fill="#03dac6"/><path d="M517.5 3074.5h-75.4" stroke="#03dac6" stroke-width="3" fill="none"/><path d="M519 3075.97h-1.54v-2.94H519z" stroke="#03dac6" stroke-width=".05" fill="#03dac6"/><path d="M433.95 3074.5l12.9-7.64v15.28z" stroke="#03dac6" stroke-width="3" fill="#03dac6"/><path d="M147.5 3074.5H72.1" stroke="#03dac6" stroke-width="3" fill="none"/><path d="M149 3075.97h-1.54v-2.94H149z" stroke="#03dac6" stroke-width=".05" fill="#03dac6"/><path d="M63.95 3074.5l12.9-7.64v15.28z" stroke="#03dac6" stroke-width="3" fill="#03dac6"/><path d="M830 3286a6 6 0 0 1 6-6h268a6 6 0 0 1 6 6v47.82a6 6 0 0 1-6 6H836a6 6 0 0 1-6-6z" stroke="#9e66e4" stroke-width="2" fill="#d7faf5"/><g><use xlink:href="#ae" transform="matrix(1,0,0,1,842,3292) translate(33.17499999999998 21.15)"/><use xlink:href="#af" transform="matrix(1,0,0,1,842,3292) translate(66.12499999999999 21.15)"/><use xlink:href="#ag" transform="matrix(1,0,0,1,842,3292) translate(116.07499999999999 21.15)"/></g><path d="M1120 3286a6 6 0 0 1 6-6h268a6 6 0 0 1 6 6v47.82a6 6 0 0 1-6 6h-268a6 6 0 0 1-6-6z" stroke="#9e66e4" stroke-width="2" fill="#e08fff"/><g><use xlink:href="#ah" transform="matrix(1,0,0,1,1132,3292) translate(33.150000000000006 21.15)"/><use xlink:href="#ai" transform="matrix(1,0,0,1,1132,3292) translate(109.05000000000001 21.15)"/></g><path d="M540 3286a6 6 0 0 1 6-6h268a6 6 0 0 1 6 6v47.82a6 6 0 0 1-6 6H546a6 6 0 0 1-6-6z" stroke="#9e66e4" stroke-width="2" fill="#edf5ff"/><g><use xlink:href="#aj" transform="matrix(1,0,0,1,551.9999999999993,3292) translate(82.625 21.15)"/></g><defs><path d="M140-251c80 0 125 45 125 126S219 4 139 4C58 4 15-44 15-125s44-126 125-126zm-1 214c52 0 73-35 73-88 0-50-21-86-72-86-52 0-73 35-73 86s22 88 72 88" id="ak"/><path d="M85 4C-2 5 27-109 22-190h50c7 57-23 150 33 157 60-5 35-97 40-157h50l1 190h-47c-2-12 1-28-3-38-12 25-28 42-61 42" id="al"/><path d="M115-3C79 11 28 4 28-45v-112H4v-33h27l15-45h31v45h36v33H77v99c-1 23 16 31 38 25v30" id="am"/><path d="M135-194c52 0 70 43 70 98 0 56-19 99-73 100-30 1-46-15-58-35L72 0H24l1-261h50v104c11-23 29-37 60-37zM114-30c31 0 40-27 40-66 0-37-7-63-39-63s-41 28-41 65c0 36 8 64 40 64" id="an"/><path d="M110-194c64 0 96 36 96 99 0 64-35 99-97 99-61 0-95-36-95-99 0-62 34-99 96-99zm-1 164c35 0 45-28 45-65 0-40-10-65-43-65-34 0-45 26-45 65 0 36 10 65 43 65" id="ao"/><path d="M144 0l-44-69L55 0H2l70-98-66-92h53l41 62 40-62h54l-67 91 71 99h-54" id="ap"/><g id="a"><use transform="matrix(0.05,0,0,0.05,0,0)" xlink:href="#ak"/><use transform="matrix(0.05,0,0,0.05,14,0)" xlink:href="#al"/><use transform="matrix(0.05,0,0,0.05,24.950000000000003,0)" xlink:href="#am"/><use transform="matrix(0.05,0,0,0.05,30.900000000000002,0)" xlink:href="#an"/><use transform="matrix(0.05,0,0,0.05,41.85,0)" xlink:href="#ao"/><use transform="matrix(0.05,0,0,0.05,52.800000000000004,0)" xlink:href="#ap"/></g><path d="M24-248c120-7 223 5 221 122C244-46 201 0 124 0H24v-248zM76-40c74 7 117-18 117-86 0-67-45-88-117-82v168" id="aq"/><path d="M133-34C117-15 103 5 69 4 32 3 11-16 11-54c-1-60 55-63 116-61 1-26-3-47-28-47-18 1-26 9-28 27l-52-2c7-38 36-58 82-57s74 22 75 68l1 82c-1 14 12 18 25 15v27c-30 8-71 5-69-32zm-48 3c29 0 43-24 42-57-32 0-66-3-65 30 0 17 8 27 23 27" id="ar"/><path d="M137-138c1-29-70-34-71-4 15 46 118 7 119 86 1 83-164 76-172 9l43-7c4 19 20 25 44 25 33 8 57-30 24-41C81-84 22-81 20-136c-2-80 154-74 161-7" id="as"/><path d="M185-48c-13 30-37 53-82 52C43 2 14-33 14-96s30-98 90-98c62 0 83 45 84 108H66c0 31 8 55 39 56 18 0 30-7 34-22zm-45-69c5-46-57-63-70-21-2 6-4 13-4 21h74" id="at"/><g id="b"><use transform="matrix(0.05,0,0,0.05,0,0)" xlink:href="#aq"/><use transform="matrix(0.05,0,0,0.05,12.950000000000001,0)" xlink:href="#ar"/><use transform="matrix(0.05,0,0,0.05,22.950000000000003,0)" xlink:href="#am"/><use transform="matrix(0.05,0,0,0.05,28.900000000000002,0)" xlink:href="#ar"/><use transform="matrix(0.05,0,0,0.05,38.900000000000006,0)" xlink:href="#an"/><use transform="matrix(0.05,0,0,0.05,49.85000000000001,0)" xlink:href="#ar"/><use transform="matrix(0.05,0,0,0.05,59.85,0)" xlink:href="#as"/><use transform="matrix(0.05,0,0,0.05,69.85000000000001,0)" xlink:href="#at"/></g><path d="M67-125c0 53 21 87 73 88 37 1 54-22 65-47l45 17C233-25 199 4 140 4 58 4 20-42 15-125 8-235 124-281 211-232c18 10 29 29 36 50l-46 12c-8-25-30-41-62-41-52 0-71 34-72 86" id="au"/><path d="M220-157c-53 9-28 100-34 157h-49v-107c1-27-5-49-29-50C55-147 81-57 75 0H25l-1-190h47c2 12-1 28 3 38 10-53 101-56 108 0 13-22 24-43 59-42 82 1 51 116 57 194h-49v-107c-1-25-5-48-29-50" id="av"/><path d="M135-194c87-1 58 113 63 194h-50c-7-57 23-157-34-157-59 0-34 97-39 157H25l-1-190h47c2 12-1 28 3 38 12-26 28-41 61-42" id="aw"/><path d="M88-194c31-1 46 15 58 34l-1-101h50l1 261h-48c-2-10 0-23-3-31C134-8 116 4 84 4 32 4 16-41 15-95c0-56 19-97 73-99zm17 164c33 0 40-30 41-66 1-37-9-64-41-64s-38 30-39 65c0 43 13 65 39 65" id="ax"/><g id="c"><use transform="matrix(0.05,0,0,0.05,0,0)" xlink:href="#au"/><use transform="matrix(0.05,0,0,0.05,12.950000000000001,0)" xlink:href="#ao"/><use transform="matrix(0.05,0,0,0.05,23.900000000000002,0)" xlink:href="#av"/><use transform="matrix(0.05,0,0,0.05,39.900000000000006,0)" xlink:href="#av"/><use transform="matrix(0.05,0,0,0.05,55.900000000000006,0)" xlink:href="#ar"/><use transform="matrix(0.05,0,0,0.05,65.9,0)" xlink:href="#aw"/><use transform="matrix(0.05,0,0,0.05,76.85000000000001,0)" xlink:href="#ax"/></g><path d="M24-248c93 1 206-16 204 79-1 75-69 88-152 82V0H24v-248zm52 121c47 0 100 7 100-41 0-47-54-39-100-39v80" id="ay"/><path d="M135-150c-39-12-60 13-60 57V0H25l-1-190h47c2 13-1 29 3 40 6-28 27-53 61-41v41" id="az"/><path d="M25-224v-37h50v37H25zM75 22c2 45-34 59-81 51V38c22 5 31-5 31-27v-201h50V22" id="aA"/><path d="M190-63c-7 42-38 67-86 67-59 0-84-38-90-98-12-110 154-137 174-36l-49 2c-2-19-15-32-35-32-30 0-35 28-38 64-6 74 65 87 74 30" id="aB"/><path d="M25-224v-37h50v37H25zM25 0v-190h50V0H25" id="aC"/><g id="d"><use transform="matrix(0.05,0,0,0.05,0,0)" xlink:href="#ay"/><use transform="matrix(0.05,0,0,0.05,12,0)" xlink:href="#az"/><use transform="matrix(0.05,0,0,0.05,19,0)" xlink:href="#ao"/><use transform="matrix(0.05,0,0,0.05,29.950000000000003,0)" xlink:href="#aA"/><use transform="matrix(0.05,0,0,0.05,34.95,0)" xlink:href="#at"/><use transform="matrix(0.05,0,0,0.05,44.95,0)" xlink:href="#aB"/><use transform="matrix(0.05,0,0,0.05,54.95,0)" xlink:href="#am"/><use transform="matrix(0.05,0,0,0.05,60.900000000000006,0)" xlink:href="#aC"/><use transform="matrix(0.05,0,0,0.05,65.9,0)" xlink:href="#ao"/><use transform="matrix(0.05,0,0,0.05,76.85000000000001,0)" xlink:href="#aw"/></g><path d="M24 0v-248h195v40H76v63h132v40H76v65h150V0H24" id="aD"/><path d="M128 0H69L1-190h53L99-40l48-150h52" id="aE"/><g id="e"><use transform="matrix(0.05,0,0,0.05,0,0)" xlink:href="#aD"/><use transform="matrix(0.05,0,0,0.05,12,0)" xlink:href="#aE"/><use transform="matrix(0.05,0,0,0.05,22,0)" xlink:href="#at"/><use transform="matrix(0.05,0,0,0.05,32,0)" xlink:href="#aw"/><use transform="matrix(0.05,0,0,0.05,42.95,0)" xlink:href="#am"/></g><path d="M186 0v-106H76V0H24v-248h52v99h110v-99h50V0h-50" id="aF"/><path d="M25 0v-261h50V0H25" id="aG"/><g id="f"><use transform="matrix(0.05,0,0,0.05,0,0)" xlink:href="#aF"/><use transform="matrix(0.05,0,0,0.05,12.950000000000001,0)" xlink:href="#ar"/><use transform="matrix(0.05,0,0,0.05,22.950000000000003,0)" xlink:href="#aw"/><use transform="matrix(0.05,0,0,0.05,33.900000000000006,0)" xlink:href="#ax"/><use transform="matrix(0.05,0,0,0.05,44.85000000000001,0)" xlink:href="#aG"/><use transform="matrix(0.05,0,0,0.05,49.85000000000001,0)" xlink:href="#at"/><use transform="matrix(0.05,0,0,0.05,59.85,0)" xlink:href="#az"/></g><g id="g"><use transform="matrix(0.05,0,0,0.05,0,0)" xlink:href="#aq"/><use transform="matrix(0.05,0,0,0.05,12.950000000000001,0)" xlink:href="#ao"/><use transform="matrix(0.05,0,0,0.05,23.900000000000002,0)" xlink:href="#av"/><use transform="matrix(0.05,0,0,0.05,39.900000000000006,0)" xlink:href="#ar"/><use transform="matrix(0.05,0,0,0.05,49.900000000000006,0)" xlink:href="#aC"/><use transform="matrix(0.05,0,0,0.05,54.900000000000006,0)" xlink:href="#aw"/></g><path d="M230 0l2-204L168 0h-37L68-204 70 0H24v-248h70l56 185 57-185h69V0h-46" id="aH"/><g id="h"><use transform="matrix(0.05,0,0,0.05,0,0)" xlink:href="#aH"/><use transform="matrix(0.05,0,0,0.05,14.950000000000001,0)" xlink:href="#ao"/><use transform="matrix(0.05,0,0,0.05,25.900000000000002,0)" xlink:href="#ax"/><use transform="matrix(0.05,0,0,0.05,36.85,0)" xlink:href="#at"/><use transform="matrix(0.05,0,0,0.05,46.85,0)" xlink:href="#aG"/></g><path d="M114-157C55-157 80-60 75 0H25v-261h50l-1 109c12-26 28-41 61-42 86-1 58 113 63 194h-50c-7-57 23-157-34-157" id="aI"/><path d="M195-6C206 82 75 100 31 46c-4-6-6-13-8-21l49-6c3 16 16 24 34 25 40 0 42-37 40-79-11 22-30 35-61 35-53 0-70-43-70-97 0-56 18-96 73-97 30 0 46 14 59 34l2-30h47zm-90-29c32 0 41-27 41-63 0-35-9-62-40-62-32 0-39 29-40 63 0 36 9 62 39 62" id="aJ"/><g id="i"><use transform="matrix(0.05,0,0,0.05,0,0)" xlink:href="#au"/><use transform="matrix(0.05,0,0,0.05,12.950000000000001,0)" xlink:href="#aI"/><use transform="matrix(0.05,0,0,0.05,23.900000000000002,0)" xlink:href="#ar"/><use transform="matrix(0.05,0,0,0.05,33.900000000000006,0)" xlink:href="#aw"/><use transform="matrix(0.05,0,0,0.05,44.85000000000001,0)" xlink:href="#aJ"/><use transform="matrix(0.05,0,0,0.05,55.80000000000001,0)" xlink:href="#at"/><use transform="matrix(0.05,0,0,0.05,65.80000000000001,0)" xlink:href="#as"/></g><g id="j"><use transform="matrix(0.05,0,0,0.05,0,0)" xlink:href="#aD"/><use transform="matrix(0.05,0,0,0.05,12,0)" xlink:href="#aE"/><use transform="matrix(0.05,0,0,0.05,22,0)" xlink:href="#at"/><use transform="matrix(0.05,0,0,0.05,32,0)" xlink:href="#aw"/><use transform="matrix(0.05,0,0,0.05,42.95,0)" xlink:href="#am"/><use transform="matrix(0.05,0,0,0.05,48.900000000000006,0)" xlink:href="#as"/></g><path d="M67-125c0 54 23 88 75 88 28 0 53-7 68-21v-34h-60v-39h108v91C232-14 192 4 140 4 58 4 20-42 15-125 8-236 126-280 215-234c19 10 29 26 37 47l-47 15c-11-23-29-39-63-39-53 1-75 33-75 86" id="aK"/><g id="k"><use transform="matrix(0.05,0,0,0.05,0,0)" xlink:href="#aK"/><use transform="matrix(0.05,0,0,0.05,14,0)" xlink:href="#at"/><use transform="matrix(0.05,0,0,0.05,24,0)" xlink:href="#aw"/><use transform="matrix(0.05,0,0,0.05,34.95,0)" xlink:href="#at"/><use transform="matrix(0.05,0,0,0.05,44.95,0)" xlink:href="#az"/><use transform="matrix(0.05,0,0,0.05,51.95,0)" xlink:href="#ar"/><use transform="matrix(0.05,0,0,0.05,61.95,0)" xlink:href="#am"/><use transform="matrix(0.05,0,0,0.05,67.9,0)" xlink:href="#at"/><use transform="matrix(0.05,0,0,0.05,77.9,0)" xlink:href="#ax"/></g><path d="M24 0v-248h52V0H24" id="aL"/><g id="l"><use transform="matrix(0.05,0,0,0.05,0,0)" xlink:href="#aL"/><use transform="matrix(0.05,0,0,0.05,5,0)" xlink:href="#aw"/><use transform="matrix(0.05,0,0,0.05,15.950000000000001,0)" xlink:href="#am"/><use transform="matrix(0.05,0,0,0.05,21.900000000000002,0)" xlink:href="#at"/><use transform="matrix(0.05,0,0,0.05,31.900000000000002,0)" xlink:href="#aJ"/><use transform="matrix(0.05,0,0,0.05,42.85,0)" xlink:href="#az"/><use transform="matrix(0.05,0,0,0.05,49.85,0)" xlink:href="#ar"/><use transform="matrix(0.05,0,0,0.05,59.85,0)" xlink:href="#am"/><use transform="matrix(0.05,0,0,0.05,65.8,0)" xlink:href="#aC"/><use transform="matrix(0.05,0,0,0.05,70.8,0)" xlink:href="#ao"/><use transform="matrix(0.05,0,0,0.05,81.75,0)" xlink:href="#aw"/></g><g id="m"><use transform="matrix(0.05,0,0,0.05,0,0)" xlink:href="#aD"/><use transform="matrix(0.05,0,0,0.05,12,0)" xlink:href="#aE"/><use transform="matrix(0.05,0,0,0.05,22,0)" xlink:href="#at"/><use transform="matrix(0.05,0,0,0.05,32,0)" xlink:href="#aw"/><use transform="matrix(0.05,0,0,0.05,42.95,0)" xlink:href="#am"/></g><g id="n"><use transform="matrix(0.05,0,0,0.05,0,0)" xlink:href="#aF"/><use transform="matrix(0.05,0,0,0.05,12.950000000000001,0)" xlink:href="#ar"/><use transform="matrix(0.05,0,0,0.05,22.950000000000003,0)" xlink:href="#aw"/><use transform="matrix(0.05,0,0,0.05,33.900000000000006,0)" xlink:href="#ax"/><use transform="matrix(0.05,0,0,0.05,44.85000000000001,0)" xlink:href="#aG"/><use transform="matrix(0.05,0,0,0.05,49.85000000000001,0)" xlink:href="#at"/><use transform="matrix(0.05,0,0,0.05,59.85,0)" xlink:href="#az"/></g><path d="M24 0v-248h52v208h133V0H24" id="aM"/><g id="o"><use transform="matrix(0.05,0,0,0.05,0,0)" xlink:href="#aM"/><use transform="matrix(0.05,0,0,0.05,10.950000000000001,0)" xlink:href="#ao"/><use transform="matrix(0.05,0,0,0.05,21.900000000000002,0)" xlink:href="#aJ"/><use transform="matrix(0.05,0,0,0.05,32.85,0)" xlink:href="#aC"/><use transform="matrix(0.05,0,0,0.05,37.85,0)" xlink:href="#aB"/></g><g id="p"><use transform="matrix(0.05,0,0,0.05,0,0)" xlink:href="#aD"/><use transform="matrix(0.05,0,0,0.05,12,0)" xlink:href="#aE"/><use transform="matrix(0.05,0,0,0.05,22,0)" xlink:href="#at"/><use transform="matrix(0.05,0,0,0.05,32,0)" xlink:href="#aw"/><use transform="matrix(0.05,0,0,0.05,42.95,0)" xlink:href="#am"/></g><path d="M182-130c37 4 62 22 62 59C244 23 116-4 24 0v-248c84 5 203-23 205 63 0 31-19 50-47 55zM76-148c40-3 101 13 101-30 0-44-60-28-101-31v61zm0 110c48-3 116 14 116-37 0-48-69-32-116-35v72" id="aN"/><g id="q"><use transform="matrix(0.05,0,0,0.05,0,0)" xlink:href="#aN"/><use transform="matrix(0.05,0,0,0.05,12.950000000000001,0)" xlink:href="#al"/><use transform="matrix(0.05,0,0,0.05,23.900000000000002,0)" xlink:href="#as"/></g><g id="r"><use transform="matrix(0.05,0,0,0.05,0,0)" xlink:href="#aD"/><use transform="matrix(0.05,0,0,0.05,12,0)" xlink:href="#ap"/><use transform="matrix(0.05,0,0,0.05,22,0)" xlink:href="#am"/><use transform="matrix(0.05,0,0,0.05,27.950000000000003,0)" xlink:href="#at"/><use transform="matrix(0.05,0,0,0.05,37.95,0)" xlink:href="#az"/><use transform="matrix(0.05,0,0,0.05,44.95,0)" xlink:href="#aw"/><use transform="matrix(0.05,0,0,0.05,55.900000000000006,0)" xlink:href="#ar"/><use transform="matrix(0.05,0,0,0.05,65.9,0)" xlink:href="#aG"/></g><path d="M169-182c-1-43-94-46-97-3 18 66 151 10 154 114 3 95-165 93-204 36-6-8-10-19-12-30l50-8c3 46 112 56 116 5-17-69-150-10-154-114-4-87 153-88 188-35 5 8 8 18 10 28" id="aO"/><path d="M123 10C108 53 80 86 19 72V37c35 8 53-11 59-39L3-190h52l48 148c12-52 28-100 44-148h51" id="aP"/><g id="s"><use transform="matrix(0.05,0,0,0.05,0,0)" xlink:href="#aO"/><use transform="matrix(0.05,0,0,0.05,12,0)" xlink:href="#aP"/><use transform="matrix(0.05,0,0,0.05,22,0)" xlink:href="#as"/><use transform="matrix(0.05,0,0,0.05,32,0)" xlink:href="#am"/><use transform="matrix(0.05,0,0,0.05,37.95,0)" xlink:href="#at"/><use transform="matrix(0.05,0,0,0.05,47.95,0)" xlink:href="#av"/></g><path d="M240-174c0 40-23 61-54 70L253 0h-59l-57-94H76V0H24v-248c93 4 217-23 216 74zM76-134c48-2 112 12 112-38 0-48-66-32-112-35v73" id="aQ"/><g id="t"><use transform="matrix(0.05,0,0,0.05,0,0)" xlink:href="#aQ"/><use transform="matrix(0.05,0,0,0.05,12.950000000000001,0)" xlink:href="#at"/><use transform="matrix(0.05,0,0,0.05,22.950000000000003,0)" xlink:href="#ar"/><use transform="matrix(0.05,0,0,0.05,32.95,0)" xlink:href="#ax"/></g><g id="u"><use transform="matrix(0.05,0,0,0.05,0,0)" xlink:href="#aH"/><use transform="matrix(0.05,0,0,0.05,14.950000000000001,0)" xlink:href="#ao"/><use transform="matrix(0.05,0,0,0.05,25.900000000000002,0)" xlink:href="#ax"/><use transform="matrix(0.05,0,0,0.05,36.85,0)" xlink:href="#at"/><use transform="matrix(0.05,0,0,0.05,46.85,0)" xlink:href="#aG"/></g><g id="v"><use transform="matrix(0.05,0,0,0.05,0,0)" xlink:href="#aO"/><use transform="matrix(0.05,0,0,0.05,12,0)" xlink:href="#am"/><use transform="matrix(0.05,0,0,0.05,17.95,0)" xlink:href="#ao"/><use transform="matrix(0.05,0,0,0.05,28.899999999999995,0)" xlink:href="#az"/><use transform="matrix(0.05,0,0,0.05,35.9,0)" xlink:href="#at"/></g><g id="w"><use transform="matrix(0.05,0,0,0.05,0,0)" xlink:href="#aq"/><use transform="matrix(0.05,0,0,0.05,12.950000000000001,0)" xlink:href="#ar"/><use transform="matrix(0.05,0,0,0.05,22.950000000000003,0)" xlink:href="#am"/><use transform="matrix(0.05,0,0,0.05,28.900000000000002,0)" xlink:href="#ar"/><use transform="matrix(0.05,0,0,0.05,38.900000000000006,0)" xlink:href="#an"/><use transform="matrix(0.05,0,0,0.05,49.85000000000001,0)" xlink:href="#ar"/><use transform="matrix(0.05,0,0,0.05,59.85,0)" xlink:href="#as"/><use transform="matrix(0.05,0,0,0.05,69.85000000000001,0)" xlink:href="#at"/></g><path d="M67-93c0 74 22 123 53 168H70C40 30 18-18 18-93s22-123 52-168h50c-32 44-53 94-53 168" id="aR"/><path d="M76-54c-1 42 2 86-19 110H24C36 42 46 24 48 0H25v-54h51" id="aS"/><g id="x"><use transform="matrix(0.05,0,0,0.05,0,0)" xlink:href="#aR"/><use transform="matrix(0.05,0,0,0.05,5.95,0)" xlink:href="#aD"/><use transform="matrix(0.05,0,0,0.05,17.95,0)" xlink:href="#aG"/><use transform="matrix(0.05,0,0,0.05,22.95,0)" xlink:href="#ar"/><use transform="matrix(0.05,0,0,0.05,32.95,0)" xlink:href="#as"/><use transform="matrix(0.05,0,0,0.05,42.95,0)" xlink:href="#am"/><use transform="matrix(0.05,0,0,0.05,48.900000000000006,0)" xlink:href="#aC"/><use transform="matrix(0.05,0,0,0.05,53.900000000000006,0)" xlink:href="#aB"/><use transform="matrix(0.05,0,0,0.05,63.900000000000006,0)" xlink:href="#aS"/></g><path d="M140-251c80 0 125 45 125 126 0 70-33 111-92 124 6 28 34 38 68 31l-1 36C177 83 129 55 120 2 51-6 15-50 15-125c0-81 44-126 125-126zm-1 214c52 0 73-35 73-88 0-50-21-86-72-86-52 0-73 35-73 86s22 88 72 88" id="aT"/><g id="y"><use transform="matrix(0.05,0,0,0.05,0,0)" xlink:href="#aO"/><use transform="matrix(0.05,0,0,0.05,12,0)" xlink:href="#aT"/><use transform="matrix(0.05,0,0,0.05,26,0)" xlink:href="#aM"/></g><g id="z"><use transform="matrix(0.05,0,0,0.05,0,0)" xlink:href="#aO"/><use transform="matrix(0.05,0,0,0.05,12,0)" xlink:href="#at"/><use transform="matrix(0.05,0,0,0.05,22,0)" xlink:href="#az"/><use transform="matrix(0.05,0,0,0.05,29,0)" xlink:href="#aE"/><use transform="matrix(0.05,0,0,0.05,39,0)" xlink:href="#at"/><use transform="matrix(0.05,0,0,0.05,49,0)" xlink:href="#az"/><use transform="matrix(0.05,0,0,0.05,55,0)" xlink:href="#aS"/></g><path d="M84 4C32 4 15-41 15-95c0-55 18-99 73-99 29 0 47 12 58 34l2-30h48l-1 265h-49V-32C136-9 114 4 84 4zm21-34c32 0 41-29 41-66 0-36-9-64-40-64-33 0-39 30-40 65 0 43 13 65 39 65" id="aU"/><path d="M24 0v-54h51V0H24" id="aV"/><path d="M102-93c0 74-22 123-52 168H0C30 29 54-18 53-93c0-74-22-123-53-168h50c30 45 52 94 52 168" id="aW"/><g id="A"><use transform="matrix(0.05,0,0,0.05,0,0)" xlink:href="#ay"/><use transform="matrix(0.05,0,0,0.05,12,0)" xlink:href="#ao"/><use transform="matrix(0.05,0,0,0.05,22.950000000000003,0)" xlink:href="#as"/><use transform="matrix(0.05,0,0,0.05,32.95,0)" xlink:href="#am"/><use transform="matrix(0.05,0,0,0.05,38.900000000000006,0)" xlink:href="#aJ"/><use transform="matrix(0.05,0,0,0.05,49.85000000000001,0)" xlink:href="#az"/><use transform="matrix(0.05,0,0,0.05,56.85,0)" xlink:href="#at"/><use transform="matrix(0.05,0,0,0.05,66.85000000000001,0)" xlink:href="#aO"/><use transform="matrix(0.05,0,0,0.05,78.85000000000001,0)" xlink:href="#aU"/><use transform="matrix(0.05,0,0,0.05,89.80000000000001,0)" xlink:href="#aG"/><use transform="matrix(0.05,0,0,0.05,94.80000000000001,0)" xlink:href="#aS"/><use transform="matrix(0.05,0,0,0.05,99.80000000000001,0)" xlink:href="#at"/><use transform="matrix(0.05,0,0,0.05,109.80000000000001,0)" xlink:href="#am"/><use transform="matrix(0.05,0,0,0.05,115.75,0)" xlink:href="#aB"/><use transform="matrix(0.05,0,0,0.05,125.75,0)" xlink:href="#aV"/><use transform="matrix(0.05,0,0,0.05,130.75,0)" xlink:href="#aW"/></g><g id="B"><use transform="matrix(0.05,0,0,0.05,0,0)" xlink:href="#aQ"/><use transform="matrix(0.05,0,0,0.05,12.950000000000001,0)" xlink:href="#ao"/><use transform="matrix(0.05,0,0,0.05,23.900000000000002,0)" xlink:href="#al"/><use transform="matrix(0.05,0,0,0.05,34.85,0)" xlink:href="#am"/><use transform="matrix(0.05,0,0,0.05,40.800000000000004,0)" xlink:href="#at"/><use transform="matrix(0.05,0,0,0.05,50.800000000000004,0)" xlink:href="#az"/></g><g id="C"><use transform="matrix(0.05,0,0,0.05,0,0)" xlink:href="#aH"/><use transform="matrix(0.05,0,0,0.05,14.950000000000001,0)" xlink:href="#ar"/><use transform="matrix(0.05,0,0,0.05,24.950000000000003,0)" xlink:href="#as"/><use transform="matrix(0.05,0,0,0.05,34.95,0)" xlink:href="#as"/></g><path d="M136-208V0H84v-208H4v-40h212v40h-80" id="aX"/><g id="D"><use transform="matrix(0.05,0,0,0.05,0,0)" xlink:href="#aX"/><use transform="matrix(0.05,0,0,0.05,9.950000000000001,0)" xlink:href="#az"/><use transform="matrix(0.05,0,0,0.05,16.950000000000003,0)" xlink:href="#ar"/><use transform="matrix(0.05,0,0,0.05,26.950000000000003,0)" xlink:href="#aw"/><use transform="matrix(0.05,0,0,0.05,37.900000000000006,0)" xlink:href="#as"/><use transform="matrix(0.05,0,0,0.05,47.900000000000006,0)" xlink:href="#aC"/><use transform="matrix(0.05,0,0,0.05,52.900000000000006,0)" xlink:href="#am"/></g><g id="E"><use transform="matrix(0.05,0,0,0.05,0,0)" xlink:href="#aD"/><use transform="matrix(0.05,0,0,0.05,12,0)" xlink:href="#aE"/><use transform="matrix(0.05,0,0,0.05,22,0)" xlink:href="#at"/><use transform="matrix(0.05,0,0,0.05,32,0)" xlink:href="#aw"/><use transform="matrix(0.05,0,0,0.05,42.95,0)" xlink:href="#am"/></g><g id="F"><use transform="matrix(0.05,0,0,0.05,0,0)" xlink:href="#ay"/><use transform="matrix(0.05,0,0,0.05,12,0)" xlink:href="#az"/><use transform="matrix(0.05,0,0,0.05,19,0)" xlink:href="#ao"/><use transform="matrix(0.05,0,0,0.05,29.950000000000003,0)" xlink:href="#ax"/><use transform="matrix(0.05,0,0,0.05,40.900000000000006,0)" xlink:href="#al"/><use transform="matrix(0.05,0,0,0.05,51.85,0)" xlink:href="#aB"/><use transform="matrix(0.05,0,0,0.05,61.85,0)" xlink:href="#at"/><use transform="matrix(0.05,0,0,0.05,71.85000000000001,0)" xlink:href="#az"/></g><path d="M238-95c0 69-44 99-111 99C63 4 22-25 22-93v-155h51v151c-1 38 19 59 55 60 90 1 49-130 58-211h52v153" id="aY"/><g id="G"><use transform="matrix(0.05,0,0,0.05,0,0)" xlink:href="#au"/><use transform="matrix(0.05,0,0,0.05,12.950000000000001,0)" xlink:href="#aQ"/><use transform="matrix(0.05,0,0,0.05,25.900000000000002,0)" xlink:href="#aY"/><use transform="matrix(0.05,0,0,0.05,38.85,0)" xlink:href="#aq"/></g><g id="H"><use transform="matrix(0.05,0,0,0.05,0,0)" xlink:href="#aq"/><use transform="matrix(0.05,0,0,0.05,12.950000000000001,0)" xlink:href="#aN"/></g><path d="M14-72v-43h91v43H14" id="aZ"/><g id="I"><use transform="matrix(0.05,0,0,0.05,0,0)" xlink:href="#aL"/><use transform="matrix(0.05,0,0,0.05,5,0)" xlink:href="#aw"/><use transform="matrix(0.05,0,0,0.05,15.950000000000001,0)" xlink:href="#aZ"/><use transform="matrix(0.05,0,0,0.05,21.900000000000002,0)" xlink:href="#aH"/><use transform="matrix(0.05,0,0,0.05,36.85,0)" xlink:href="#at"/><use transform="matrix(0.05,0,0,0.05,46.85,0)" xlink:href="#av"/><use transform="matrix(0.05,0,0,0.05,62.85,0)" xlink:href="#ao"/><use transform="matrix(0.05,0,0,0.05,73.8,0)" xlink:href="#az"/><use transform="matrix(0.05,0,0,0.05,80.8,0)" xlink:href="#aP"/></g><g id="J"><use transform="matrix(0.05,0,0,0.05,0,0)" xlink:href="#aY"/><use transform="matrix(0.05,0,0,0.05,12.950000000000001,0)" xlink:href="#aw"/><use transform="matrix(0.05,0,0,0.05,23.900000000000002,0)" xlink:href="#aC"/><use transform="matrix(0.05,0,0,0.05,28.900000000000002,0)" xlink:href="#am"/></g><path d="M121-226c-27-7-43 5-38 36h38v33H83V0H34v-157H6v-33h28c-9-59 32-81 87-68v32" id="ba"/><g id="K"><use transform="matrix(0.05,0,0,0.05,0,0)" xlink:href="#ao"/><use transform="matrix(0.05,0,0,0.05,10.950000000000001,0)" xlink:href="#ba"/></g><path d="M275 0h-61l-44-196L126 0H64L0-248h53L97-49l45-199h58l43 199 44-199h52" id="bb"/><path d="M147 0L96-86 75-71V0H25v-261h50v150l67-79h53l-66 74L201 0h-54" id="bc"/><g id="L"><use transform="matrix(0.05,0,0,0.05,0,0)" xlink:href="#bb"/><use transform="matrix(0.05,0,0,0.05,16.599999999999998,0)" xlink:href="#ao"/><use transform="matrix(0.05,0,0,0.05,27.549999999999997,0)" xlink:href="#az"/><use transform="matrix(0.05,0,0,0.05,34.55,0)" xlink:href="#bc"/></g><g id="M"><use transform="matrix(0.05,0,0,0.05,0,0)" xlink:href="#au"/><use transform="matrix(0.05,0,0,0.05,12.950000000000001,0)" xlink:href="#ao"/><use transform="matrix(0.05,0,0,0.05,23.900000000000002,0)" xlink:href="#av"/><use transform="matrix(0.05,0,0,0.05,39.900000000000006,0)" xlink:href="#av"/><use transform="matrix(0.05,0,0,0.05,55.900000000000006,0)" xlink:href="#aC"/><use transform="matrix(0.05,0,0,0.05,60.900000000000006,0)" xlink:href="#am"/><use transform="matrix(0.05,0,0,0.05,66.85000000000001,0)" xlink:href="#am"/><use transform="matrix(0.05,0,0,0.05,72.80000000000001,0)" xlink:href="#at"/><use transform="matrix(0.05,0,0,0.05,82.80000000000001,0)" xlink:href="#ax"/></g><g id="N"><use transform="matrix(0.05,0,0,0.05,0,0)" xlink:href="#aF"/><use transform="matrix(0.05,0,0,0.05,12.950000000000001,0)" xlink:href="#ar"/><use transform="matrix(0.05,0,0,0.05,22.950000000000003,0)" xlink:href="#aw"/><use transform="matrix(0.05,0,0,0.05,33.900000000000006,0)" xlink:href="#ax"/><use transform="matrix(0.05,0,0,0.05,44.85000000000001,0)" xlink:href="#aG"/><use transform="matrix(0.05,0,0,0.05,49.85000000000001,0)" xlink:href="#at"/><use transform="matrix(0.05,0,0,0.05,59.85,0)" xlink:href="#az"/></g><g id="O"><use transform="matrix(0.05,0,0,0.05,0,0)" xlink:href="#aR"/><use transform="matrix(0.05,0,0,0.05,5.95,0)" xlink:href="#aq"/><use transform="matrix(0.05,0,0,0.05,18.900000000000002,0)" xlink:href="#ao"/><use transform="matrix(0.05,0,0,0.05,29.85,0)" xlink:href="#av"/><use transform="matrix(0.05,0,0,0.05,45.85,0)" xlink:href="#ar"/><use transform="matrix(0.05,0,0,0.05,55.85,0)" xlink:href="#aC"/><use transform="matrix(0.05,0,0,0.05,60.85,0)" xlink:href="#aw"/></g><g id="P"><use transform="matrix(0.05,0,0,0.05,0,0)" xlink:href="#aD"/><use transform="matrix(0.05,0,0,0.05,12,0)" xlink:href="#aE"/><use transform="matrix(0.05,0,0,0.05,22,0)" xlink:href="#at"/><use transform="matrix(0.05,0,0,0.05,32,0)" xlink:href="#aw"/><use transform="matrix(0.05,0,0,0.05,42.95,0)" xlink:href="#am"/></g><g id="Q"><use transform="matrix(0.05,0,0,0.05,0,0)" xlink:href="#aF"/><use transform="matrix(0.05,0,0,0.05,12.950000000000001,0)" xlink:href="#ar"/><use transform="matrix(0.05,0,0,0.05,22.950000000000003,0)" xlink:href="#aw"/><use transform="matrix(0.05,0,0,0.05,33.900000000000006,0)" xlink:href="#ax"/><use transform="matrix(0.05,0,0,0.05,44.85000000000001,0)" xlink:href="#aG"/><use transform="matrix(0.05,0,0,0.05,49.85000000000001,0)" xlink:href="#at"/><use transform="matrix(0.05,0,0,0.05,59.85,0)" xlink:href="#az"/><use transform="matrix(0.05,0,0,0.05,66.85000000000001,0)" xlink:href="#aW"/></g><g id="R"><use transform="matrix(0.05,0,0,0.05,0,0)" xlink:href="#aX"/><use transform="matrix(0.05,0,0,0.05,9.950000000000001,0)" xlink:href="#az"/><use transform="matrix(0.05,0,0,0.05,16.950000000000003,0)" xlink:href="#ar"/><use transform="matrix(0.05,0,0,0.05,26.950000000000003,0)" xlink:href="#aB"/><use transform="matrix(0.05,0,0,0.05,36.95,0)" xlink:href="#bc"/><use transform="matrix(0.05,0,0,0.05,46.95,0)" xlink:href="#at"/><use transform="matrix(0.05,0,0,0.05,56.95,0)" xlink:href="#az"/></g><g id="S"><use transform="matrix(0.05,0,0,0.05,0,0)" xlink:href="#aC"/><use transform="matrix(0.05,0,0,0.05,5,0)" xlink:href="#aV"/><use transform="matrix(0.05,0,0,0.05,10,0)" xlink:href="#at"/><use transform="matrix(0.05,0,0,0.05,20,0)" xlink:href="#aV"/></g><g id="T"><use transform="matrix(0.05,0,0,0.05,0,0)" xlink:href="#aq"/><use transform="matrix(0.05,0,0,0.05,12.950000000000001,0)" xlink:href="#ao"/><use transform="matrix(0.05,0,0,0.05,23.900000000000002,0)" xlink:href="#av"/><use transform="matrix(0.05,0,0,0.05,39.900000000000006,0)" xlink:href="#ar"/><use transform="matrix(0.05,0,0,0.05,49.900000000000006,0)" xlink:href="#aC"/><use transform="matrix(0.05,0,0,0.05,54.900000000000006,0)" xlink:href="#aw"/></g><g id="U"><use transform="matrix(0.05,0,0,0.05,0,0)" xlink:href="#aD"/><use transform="matrix(0.05,0,0,0.05,12,0)" xlink:href="#aE"/><use transform="matrix(0.05,0,0,0.05,22,0)" xlink:href="#at"/><use transform="matrix(0.05,0,0,0.05,32,0)" xlink:href="#aw"/><use transform="matrix(0.05,0,0,0.05,42.95,0)" xlink:href="#am"/><use transform="matrix(0.05,0,0,0.05,48.900000000000006,0)" xlink:href="#as"/><use transform="matrix(0.05,0,0,0.05,58.900000000000006,0)" xlink:href="#aS"/></g><g id="V"><use transform="matrix(0.05,0,0,0.05,0,0)" xlink:href="#aL"/><use transform="matrix(0.05,0,0,0.05,5,0)" xlink:href="#aw"/><use transform="matrix(0.05,0,0,0.05,15.950000000000001,0)" xlink:href="#am"/><use transform="matrix(0.05,0,0,0.05,21.900000000000002,0)" xlink:href="#at"/><use transform="matrix(0.05,0,0,0.05,31.900000000000002,0)" xlink:href="#aJ"/><use transform="matrix(0.05,0,0,0.05,42.85,0)" xlink:href="#az"/><use transform="matrix(0.05,0,0,0.05,49.85,0)" xlink:href="#ar"/><use transform="matrix(0.05,0,0,0.05,59.85,0)" xlink:href="#am"/><use transform="matrix(0.05,0,0,0.05,65.8,0)" xlink:href="#aC"/><use transform="matrix(0.05,0,0,0.05,70.8,0)" xlink:href="#ao"/><use transform="matrix(0.05,0,0,0.05,81.75,0)" xlink:href="#aw"/></g><g id="W"><use transform="matrix(0.05,0,0,0.05,0,0)" xlink:href="#aD"/><use transform="matrix(0.05,0,0,0.05,12,0)" xlink:href="#aE"/><use transform="matrix(0.05,0,0,0.05,22,0)" xlink:href="#at"/><use transform="matrix(0.05,0,0,0.05,32,0)" xlink:href="#aw"/><use transform="matrix(0.05,0,0,0.05,42.95,0)" xlink:href="#am"/><use transform="matrix(0.05,0,0,0.05,48.900000000000006,0)" xlink:href="#as"/></g><g id="X"><use transform="matrix(0.05,0,0,0.05,0,0)" xlink:href="#aH"/><use transform="matrix(0.05,0,0,0.05,14.950000000000001,0)" xlink:href="#ar"/><use transform="matrix(0.05,0,0,0.05,24.950000000000003,0)" xlink:href="#as"/><use transform="matrix(0.05,0,0,0.05,34.95,0)" xlink:href="#as"/><use transform="matrix(0.05,0,0,0.05,44.95,0)" xlink:href="#aX"/><use transform="matrix(0.05,0,0,0.05,54.900000000000006,0)" xlink:href="#az"/><use transform="matrix(0.05,0,0,0.05,61.900000000000006,0)" xlink:href="#ar"/><use transform="matrix(0.05,0,0,0.05,71.9,0)" xlink:href="#aw"/><use transform="matrix(0.05,0,0,0.05,82.85000000000001,0)" xlink:href="#as"/><use transform="matrix(0.05,0,0,0.05,92.85000000000001,0)" xlink:href="#aC"/><use transform="matrix(0.05,0,0,0.05,97.85000000000001,0)" xlink:href="#am"/></g><g id="Y"><use transform="matrix(0.05,0,0,0.05,0,0)" xlink:href="#aH"/><use transform="matrix(0.05,0,0,0.05,14.950000000000001,0)" xlink:href="#at"/><use transform="matrix(0.05,0,0,0.05,24.950000000000003,0)" xlink:href="#as"/><use transform="matrix(0.05,0,0,0.05,34.95,0)" xlink:href="#as"/><use transform="matrix(0.05,0,0,0.05,44.95,0)" xlink:href="#ar"/><use transform="matrix(0.05,0,0,0.05,54.95,0)" xlink:href="#aJ"/><use transform="matrix(0.05,0,0,0.05,65.9,0)" xlink:href="#at"/></g><g id="Z"><use transform="matrix(0.05,0,0,0.05,0,0)" xlink:href="#aN"/><use transform="matrix(0.05,0,0,0.05,12.950000000000001,0)" xlink:href="#az"/><use transform="matrix(0.05,0,0,0.05,19.950000000000003,0)" xlink:href="#ao"/><use transform="matrix(0.05,0,0,0.05,30.900000000000006,0)" xlink:href="#bc"/><use transform="matrix(0.05,0,0,0.05,40.900000000000006,0)" xlink:href="#at"/><use transform="matrix(0.05,0,0,0.05,50.900000000000006,0)" xlink:href="#az"/></g><g id="aa"><use transform="matrix(0.05,0,0,0.05,0,0)" xlink:href="#at"/><use transform="matrix(0.05,0,0,0.05,10,0)" xlink:href="#aV"/><use transform="matrix(0.05,0,0,0.05,15,0)" xlink:href="#aJ"/><use transform="matrix(0.05,0,0,0.05,25.950000000000003,0)" xlink:href="#aV"/></g><g id="ab"><use transform="matrix(0.05,0,0,0.05,0,0)" xlink:href="#aQ"/><use transform="matrix(0.05,0,0,0.05,12.950000000000001,0)" xlink:href="#ar"/><use transform="matrix(0.05,0,0,0.05,22.950000000000003,0)" xlink:href="#an"/><use transform="matrix(0.05,0,0,0.05,33.900000000000006,0)" xlink:href="#an"/><use transform="matrix(0.05,0,0,0.05,44.85000000000001,0)" xlink:href="#aC"/><use transform="matrix(0.05,0,0,0.05,49.85000000000001,0)" xlink:href="#am"/><use transform="matrix(0.05,0,0,0.05,55.80000000000001,0)" xlink:href="#aH"/><use transform="matrix(0.05,0,0,0.05,70.75000000000001,0)" xlink:href="#aT"/><use transform="matrix(0.05,0,0,0.05,84.75000000000001,0)" xlink:href="#aS"/></g><path d="M199 0l-22-63H83L61 0H9l90-248h61L250 0h-51zm-33-102l-36-108c-10 38-24 72-36 108h72" id="bd"/><path d="M12 0v-35l95-120H19v-35h142v35L67-36h103V0H12" id="be"/><g id="ac"><use transform="matrix(0.05,0,0,0.05,0,0)" xlink:href="#bd"/><use transform="matrix(0.05,0,0,0.05,12.950000000000001,0)" xlink:href="#be"/><use transform="matrix(0.05,0,0,0.05,21.950000000000003,0)" xlink:href="#al"/><use transform="matrix(0.05,0,0,0.05,32.900000000000006,0)" xlink:href="#az"/><use transform="matrix(0.05,0,0,0.05,39.900000000000006,0)" xlink:href="#at"/></g><g id="ad"><use transform="matrix(0.05,0,0,0.05,0,0)" xlink:href="#aF"/><use transform="matrix(0.05,0,0,0.05,12.950000000000001,0)" xlink:href="#al"/><use transform="matrix(0.05,0,0,0.05,23.900000000000002,0)" xlink:href="#an"/></g><path d="M128-127c34 4 56 21 59 58 7 91-148 94-172 28-4-9-6-17-7-26l51-5c1 24 16 35 40 36 23 0 39-12 38-36-1-31-31-36-65-34v-40c32 2 59-3 59-33 0-20-13-33-34-33s-33 13-35 32l-50-3c6-44 37-68 86-68 50 0 83 20 83 66 0 35-22 52-53 58" id="bf"/><g id="ae"><use transform="matrix(0.05,0,0,0.05,0,0)" xlink:href="#bf"/><use transform="matrix(0.05,0,0,0.05,10,0)" xlink:href="#az"/><use transform="matrix(0.05,0,0,0.05,17,0)" xlink:href="#ax"/></g><g id="af"><use transform="matrix(0.05,0,0,0.05,0,0)" xlink:href="#ay"/><use transform="matrix(0.05,0,0,0.05,12,0)" xlink:href="#ar"/><use transform="matrix(0.05,0,0,0.05,22,0)" xlink:href="#az"/><use transform="matrix(0.05,0,0,0.05,29,0)" xlink:href="#am"/><use transform="matrix(0.05,0,0,0.05,34.95,0)" xlink:href="#aP"/></g><path d="M135-194c53 0 70 44 70 98 0 56-19 98-73 100-31 1-45-17-59-34 3 33 2 69 2 105H25l-1-265h48c2 10 0 23 3 31 11-24 29-35 60-35zM114-30c33 0 39-31 40-66 0-38-9-64-40-64-56 0-55 130 0 130" id="bg"/><g id="ag"><use transform="matrix(0.05,0,0,0.05,0,0)" xlink:href="#aq"/><use transform="matrix(0.05,0,0,0.05,12.950000000000001,0)" xlink:href="#at"/><use transform="matrix(0.05,0,0,0.05,22.950000000000003,0)" xlink:href="#bg"/><use transform="matrix(0.05,0,0,0.05,33.900000000000006,0)" xlink:href="#at"/><use transform="matrix(0.05,0,0,0.05,43.900000000000006,0)" xlink:href="#aw"/><use transform="matrix(0.05,0,0,0.05,54.85,0)" xlink:href="#ax"/><use transform="matrix(0.05,0,0,0.05,65.80000000000001,0)" xlink:href="#at"/><use transform="matrix(0.05,0,0,0.05,75.80000000000001,0)" xlink:href="#aw"/><use transform="matrix(0.05,0,0,0.05,86.75000000000001,0)" xlink:href="#aB"/><use transform="matrix(0.05,0,0,0.05,96.75000000000001,0)" xlink:href="#aP"/></g><g id="ah"><use transform="matrix(0.05,0,0,0.05,0,0)" xlink:href="#aD"/><use transform="matrix(0.05,0,0,0.05,12,0)" xlink:href="#ap"/><use transform="matrix(0.05,0,0,0.05,22,0)" xlink:href="#am"/><use transform="matrix(0.05,0,0,0.05,27.950000000000003,0)" xlink:href="#at"/><use transform="matrix(0.05,0,0,0.05,37.95,0)" xlink:href="#az"/><use transform="matrix(0.05,0,0,0.05,44.95,0)" xlink:href="#aw"/><use transform="matrix(0.05,0,0,0.05,55.900000000000006,0)" xlink:href="#ar"/><use transform="matrix(0.05,0,0,0.05,65.9,0)" xlink:href="#aG"/></g><path d="M4 7l51-268h42L46 7H4" id="bh"/><g id="ai"><use transform="matrix(0.05,0,0,0.05,0,0)" xlink:href="#au"/><use transform="matrix(0.05,0,0,0.05,12.950000000000001,0)" xlink:href="#ao"/><use transform="matrix(0.05,0,0,0.05,23.900000000000002,0)" xlink:href="#ax"/><use transform="matrix(0.05,0,0,0.05,34.85,0)" xlink:href="#at"/><use transform="matrix(0.05,0,0,0.05,44.85,0)" xlink:href="#bh"/><use transform="matrix(0.05,0,0,0.05,49.85,0)" xlink:href="#aO"/><use transform="matrix(0.05,0,0,0.05,61.85,0)" xlink:href="#aP"/><use transform="matrix(0.05,0,0,0.05,71.85,0)" xlink:href="#as"/><use transform="matrix(0.05,0,0,0.05,81.85,0)" xlink:href="#am"/><use transform="matrix(0.05,0,0,0.05,87.8,0)" xlink:href="#at"/><use transform="matrix(0.05,0,0,0.05,97.8,0)" xlink:href="#av"/></g><g id="aj"><use transform="matrix(0.05,0,0,0.05,0,0)" xlink:href="#aQ"/><use transform="matrix(0.05,0,0,0.05,12.950000000000001,0)" xlink:href="#au"/><use transform="matrix(0.05,0,0,0.05,25.900000000000002,0)" xlink:href="#ao"/><use transform="matrix(0.05,0,0,0.05,36.85,0)" xlink:href="#av"/><use transform="matrix(0.05,0,0,0.05,52.85,0)" xlink:href="#av"/><use transform="matrix(0.05,0,0,0.05,68.85,0)" xlink:href="#ao"/><use transform="matrix(0.05,0,0,0.05,79.8,0)" xlink:href="#aw"/></g></defs></g></svg>