<svg xmlns="http://www.w3.org/2000/svg" xmlns:xlink="http://www.w3.org/1999/xlink" xmlns:lucid="lucid" width="1002" height="496.4"><g transform="translate(-279 -219)" lucid:page-tab-id="xmpXCsAk1~8I"><path d="M300 246a6 6 0 0 1 6-6h948a6 6 0 0 1 6 6v148a6 6 0 0 1-6 6H306a6 6 0 0 1-6-6z" stroke="#9e66e4" stroke-width="2" fill="#fbf0ff"/><use xlink:href="#a" transform="matrix(1,0,0,1,312,252) translate(330.825 69.65)"/><use xlink:href="#b" transform="matrix(1,0,0,1,312,252) translate(391.725 69.65)"/><use xlink:href="#c" transform="matrix(1,0,0,1,312,252) translate(482.525 69.65)"/><use xlink:href="#d" transform="matrix(1,0,0,1,312,252) translate(551.375 69.65)"/><path d="M300 566a6 6 0 0 1 6-6h128a6 6 0 0 1 6 6v55.2a6 6 0 0 1-6 6H306a6 6 0 0 1-6-6z" stroke="#9e66e4" stroke-width="2" fill="#b8f5ed"/><use xlink:href="#e" transform="matrix(1,0,0,1,312,572) translate(33.074999999999996 17.15)"/><use xlink:href="#f" transform="matrix(1,0,0,1,312,572) translate(10.049999999999997 38.75)"/><path d="M300 406a6 6 0 0 1 6-6h268a6 6 0 0 1 6 6v148a6 6 0 0 1-6 6H306a6 6 0 0 1-6-6z" stroke="#9e66e4" stroke-width="2" fill="#cfe4ff"/><use xlink:href="#g" transform="matrix(1,0,0,1,312,412) translate(67.125 69.65)"/><use xlink:href="#h" transform="matrix(1,0,0,1,312,412) translate(125.025 69.65)"/><path d="M640 406a6 6 0 0 1 6-6h268a6 6 0 0 1 6 6v148a6 6 0 0 1-6 6H646a6 6 0 0 1-6-6z" stroke="#9e66e4" stroke-width="2" fill="#cfe4ff"/><use xlink:href="#i" transform="matrix(1,0,0,1,652,412) translate(74.64999999999999 69.65)"/><use xlink:href="#h" transform="matrix(1,0,0,1,652,412) translate(117.5 69.65)"/><path d="M980 406a6 6 0 0 1 6-6h268a6 6 0 0 1 6 6v148a6 6 0 0 1-6 6H986a6 6 0 0 1-6-6z" stroke="#9e66e4" stroke-width="2" fill="#cfe4ff"/><use xlink:href="#j" transform="matrix(1,0,0,1,992,412) translate(79.6 69.65)"/><use xlink:href="#h" transform="matrix(1,0,0,1,992,412) translate(112.55 69.65)"/><path d="M440 566a6 6 0 0 1 6-6h128a6 6 0 0 1 6 6v55.2a6 6 0 0 1-6 6H446a6 6 0 0 1-6-6z" stroke="#9e66e4" stroke-width="2" fill="#b8f5ed"/><use xlink:href="#k" transform="matrix(1,0,0,1,452,572) translate(14.174999999999997 17.15)"/><use xlink:href="#l" transform="matrix(1,0,0,1,452,572) translate(77.92500000000001 17.15)"/><use xlink:href="#m" transform="matrix(1,0,0,1,452,572) translate(33.074999999999996 38.75)"/><path d="M640 566a6 6 0 0 1 6-6h128a6 6 0 0 1 6 6v55.2a6 6 0 0 1-6 6H646a6 6 0 0 1-6-6z" stroke="#9e66e4" stroke-width="2" fill="#b8f5ed"/><g><use xlink:href="#n" transform="matrix(1,0,0,1,652,572) translate(22.125 25.4)"/></g><path d="M980 566a6 6 0 0 1 6-6h128a6 6 0 0 1 6 6v55.2a6 6 0 0 1-6 6H986a6 6 0 0 1-6-6z" stroke="#9e66e4" stroke-width="2" fill="#b8f5ed"/><g><use xlink:href="#o" transform="matrix(1,0,0,1,992,572) translate(27.074999999999996 25.4)"/></g><path d="M300 633.2a6 6 0 0 1 6-6h128a6 6 0 0 1 6 6v55.2a6 6 0 0 1-6 6H306a6 6 0 0 1-6-6z" stroke="#9e66e4" stroke-width="2" fill="#b8f5ed"/><g><use xlink:href="#p" transform="matrix(1,0,0,1,312,639.2) translate(10.125 25.4)"/></g><path d="M1120 566a6 6 0 0 1 6-6h128a6 6 0 0 1 6 6v55.2a6 6 0 0 1-6 6h-128a6 6 0 0 1-6-6z" stroke="#9e66e4" stroke-width="2" fill="#b8f5ed"/><g><use xlink:href="#q" transform="matrix(1,0,0,1,1132,572) translate(29.099999999999994 25.4)"/></g><defs><path d="M140-251c80 0 125 45 125 126S219 4 139 4C58 4 15-44 15-125s44-126 125-126zm-1 214c52 0 73-35 73-88 0-50-21-86-72-86-52 0-73 35-73 86s22 88 72 88" id="r"/><path d="M135-194c52 0 70 43 70 98 0 56-19 99-73 100-30 1-46-15-58-35L72 0H24l1-261h50v104c11-23 29-37 60-37zM114-30c31 0 40-27 40-66 0-37-7-63-39-63s-41 28-41 65c0 36 8 64 40 64" id="s"/><path d="M25-224v-37h50v37H25zM75 22c2 45-34 59-81 51V38c22 5 31-5 31-27v-201h50V22" id="t"/><path d="M185-48c-13 30-37 53-82 52C43 2 14-33 14-96s30-98 90-98c62 0 83 45 84 108H66c0 31 8 55 39 56 18 0 30-7 34-22zm-45-69c5-46-57-63-70-21-2 6-4 13-4 21h74" id="u"/><path d="M190-63c-7 42-38 67-86 67-59 0-84-38-90-98-12-110 154-137 174-36l-49 2c-2-19-15-32-35-32-30 0-35 28-38 64-6 74 65 87 74 30" id="v"/><path d="M115-3C79 11 28 4 28-45v-112H4v-33h27l15-45h31v45h36v33H77v99c-1 23 16 31 38 25v30" id="w"/><g id="a"><use transform="matrix(0.05,0,0,0.05,0,0)" xlink:href="#r"/><use transform="matrix(0.05,0,0,0.05,14,0)" xlink:href="#s"/><use transform="matrix(0.05,0,0,0.05,24.950000000000003,0)" xlink:href="#t"/><use transform="matrix(0.05,0,0,0.05,29.950000000000003,0)" xlink:href="#u"/><use transform="matrix(0.05,0,0,0.05,39.95,0)" xlink:href="#v"/><use transform="matrix(0.05,0,0,0.05,49.95,0)" xlink:href="#w"/></g><path d="M240-174c0 40-23 61-54 70L253 0h-59l-57-94H76V0H24v-248c93 4 217-23 216 74zM76-134c48-2 112 12 112-38 0-48-66-32-112-35v73" id="x"/><path d="M25 0v-261h50V0H25" id="y"/><path d="M133-34C117-15 103 5 69 4 32 3 11-16 11-54c-1-60 55-63 116-61 1-26-3-47-28-47-18 1-26 9-28 27l-52-2c7-38 36-58 82-57s74 22 75 68l1 82c-1 14 12 18 25 15v27c-30 8-71 5-69-32zm-48 3c29 0 43-24 42-57-32 0-66-3-65 30 0 17 8 27 23 27" id="z"/><path d="M25-224v-37h50v37H25zM25 0v-190h50V0H25" id="A"/><path d="M110-194c64 0 96 36 96 99 0 64-35 99-97 99-61 0-95-36-95-99 0-62 34-99 96-99zm-1 164c35 0 45-28 45-65 0-40-10-65-43-65-34 0-45 26-45 65 0 36 10 65 43 65" id="B"/><path d="M135-194c87-1 58 113 63 194h-50c-7-57 23-157-34-157-59 0-34 97-39 157H25l-1-190h47c2 12-1 28 3 38 12-26 28-41 61-42" id="C"/><g id="b"><use transform="matrix(0.05,0,0,0.05,0,0)" xlink:href="#x"/><use transform="matrix(0.05,0,0,0.05,12.950000000000001,0)" xlink:href="#u"/><use transform="matrix(0.05,0,0,0.05,22.950000000000003,0)" xlink:href="#y"/><use transform="matrix(0.05,0,0,0.05,27.950000000000003,0)" xlink:href="#z"/><use transform="matrix(0.05,0,0,0.05,37.95,0)" xlink:href="#w"/><use transform="matrix(0.05,0,0,0.05,43.900000000000006,0)" xlink:href="#A"/><use transform="matrix(0.05,0,0,0.05,48.900000000000006,0)" xlink:href="#B"/><use transform="matrix(0.05,0,0,0.05,59.85,0)" xlink:href="#C"/><use transform="matrix(0.05,0,0,0.05,70.80000000000001,0)" xlink:href="#z"/><use transform="matrix(0.05,0,0,0.05,80.80000000000001,0)" xlink:href="#y"/></g><path d="M230 0l2-204L168 0h-37L68-204 70 0H24v-248h70l56 185 57-185h69V0h-46" id="D"/><path d="M135-194c53 0 70 44 70 98 0 56-19 98-73 100-31 1-45-17-59-34 3 33 2 69 2 105H25l-1-265h48c2 10 0 23 3 31 11-24 29-35 60-35zM114-30c33 0 39-31 40-66 0-38-9-64-40-64-56 0-55 130 0 130" id="E"/><path d="M135-150c-39-12-60 13-60 57V0H25l-1-190h47c2 13-1 29 3 40 6-28 27-53 61-41v41" id="F"/><g id="c"><use transform="matrix(0.05,0,0,0.05,0,0)" xlink:href="#D"/><use transform="matrix(0.05,0,0,0.05,14.950000000000001,0)" xlink:href="#z"/><use transform="matrix(0.05,0,0,0.05,24.950000000000003,0)" xlink:href="#E"/><use transform="matrix(0.05,0,0,0.05,35.900000000000006,0)" xlink:href="#E"/><use transform="matrix(0.05,0,0,0.05,46.85000000000001,0)" xlink:href="#u"/><use transform="matrix(0.05,0,0,0.05,56.85,0)" xlink:href="#F"/></g><path d="M67-93c0 74 22 123 53 168H70C40 30 18-18 18-93s22-123 52-168h50c-32 44-53 94-53 168" id="G"/><path d="M102-93c0 74-22 123-52 168H0C30 29 54-18 53-93c0-74-22-123-53-168h50c30 45 52 94 52 168" id="H"/><g id="d"><use transform="matrix(0.05,0,0,0.05,0,0)" xlink:href="#G"/><use transform="matrix(0.05,0,0,0.05,5.95,0)" xlink:href="#r"/><use transform="matrix(0.05,0,0,0.05,19.95,0)" xlink:href="#x"/><use transform="matrix(0.05,0,0,0.05,32.9,0)" xlink:href="#D"/><use transform="matrix(0.05,0,0,0.05,47.85,0)" xlink:href="#H"/></g><path d="M24 0v-248h195v40H76v63h132v40H76v65h150V0H24" id="I"/><path d="M123 10C108 53 80 86 19 72V37c35 8 53-11 59-39L3-190h52l48 148c12-52 28-100 44-148h51" id="J"/><g id="e"><use transform="matrix(0.05,0,0,0.05,0,0)" xlink:href="#I"/><use transform="matrix(0.05,0,0,0.05,12,0)" xlink:href="#C"/><use transform="matrix(0.05,0,0,0.05,22.950000000000003,0)" xlink:href="#w"/><use transform="matrix(0.05,0,0,0.05,28.900000000000002,0)" xlink:href="#A"/><use transform="matrix(0.05,0,0,0.05,33.900000000000006,0)" xlink:href="#w"/><use transform="matrix(0.05,0,0,0.05,39.85000000000001,0)" xlink:href="#J"/></g><path d="M76-208v77h127v40H76V0H24v-248h183v40H76" id="K"/><path d="M220-157c-53 9-28 100-34 157h-49v-107c1-27-5-49-29-50C55-147 81-57 75 0H25l-1-190h47c2 12-1 28 3 38 10-53 101-56 108 0 13-22 24-43 59-42 82 1 51 116 57 194h-49v-107c-1-25-5-48-29-50" id="L"/><path d="M231 0h-52l-39-155L100 0H48L-1-190h46L77-45c9-52 24-97 36-145h53l37 145 32-145h46" id="M"/><path d="M147 0L96-86 75-71V0H25v-261h50v150l67-79h53l-66 74L201 0h-54" id="N"/><g id="f"><use transform="matrix(0.05,0,0,0.05,0,0)" xlink:href="#K"/><use transform="matrix(0.05,0,0,0.05,10.950000000000001,0)" xlink:href="#F"/><use transform="matrix(0.05,0,0,0.05,17.950000000000003,0)" xlink:href="#z"/><use transform="matrix(0.05,0,0,0.05,27.950000000000003,0)" xlink:href="#L"/><use transform="matrix(0.05,0,0,0.05,43.95,0)" xlink:href="#u"/><use transform="matrix(0.05,0,0,0.05,53.95,0)" xlink:href="#M"/><use transform="matrix(0.05,0,0,0.05,67.95,0)" xlink:href="#B"/><use transform="matrix(0.05,0,0,0.05,78.9,0)" xlink:href="#F"/><use transform="matrix(0.05,0,0,0.05,85.9,0)" xlink:href="#N"/></g><path d="M67-125c0 54 23 88 75 88 28 0 53-7 68-21v-34h-60v-39h108v91C232-14 192 4 140 4 58 4 20-42 15-125 8-236 126-280 215-234c19 10 29 26 37 47l-47 15c-11-23-29-39-63-39-53 1-75 33-75 86" id="O"/><path d="M114-157C55-157 80-60 75 0H25v-261h50l-1 109c12-26 28-41 61-42 86-1 58 113 63 194h-50c-7-57 23-157-34-157" id="P"/><g id="g"><use transform="matrix(0.05,0,0,0.05,0,0)" xlink:href="#O"/><use transform="matrix(0.05,0,0,0.05,14,0)" xlink:href="#F"/><use transform="matrix(0.05,0,0,0.05,21,0)" xlink:href="#z"/><use transform="matrix(0.05,0,0,0.05,31,0)" xlink:href="#E"/><use transform="matrix(0.05,0,0,0.05,41.95,0)" xlink:href="#P"/></g><g id="h"><use transform="matrix(0.05,0,0,0.05,0,0)" xlink:href="#D"/><use transform="matrix(0.05,0,0,0.05,14.950000000000001,0)" xlink:href="#z"/><use transform="matrix(0.05,0,0,0.05,24.950000000000003,0)" xlink:href="#E"/><use transform="matrix(0.05,0,0,0.05,35.900000000000006,0)" xlink:href="#E"/><use transform="matrix(0.05,0,0,0.05,46.85000000000001,0)" xlink:href="#u"/><use transform="matrix(0.05,0,0,0.05,56.85,0)" xlink:href="#F"/></g><path d="M24 0v-248h52v208h133V0H24" id="Q"/><path d="M84 4C32 4 15-41 15-95c0-55 18-99 73-99 29 0 47 12 58 34l2-30h48l-1 265h-49V-32C136-9 114 4 84 4zm21-34c32 0 41-29 41-66 0-36-9-64-40-64-33 0-39 30-40 65 0 43 13 65 39 65" id="R"/><g id="i"><use transform="matrix(0.05,0,0,0.05,0,0)" xlink:href="#Q"/><use transform="matrix(0.05,0,0,0.05,10.950000000000001,0)" xlink:href="#A"/><use transform="matrix(0.05,0,0,0.05,15.950000000000001,0)" xlink:href="#C"/><use transform="matrix(0.05,0,0,0.05,26.900000000000002,0)" xlink:href="#R"/></g><path d="M169-182c-1-43-94-46-97-3 18 66 151 10 154 114 3 95-165 93-204 36-6-8-10-19-12-30l50-8c3 46 112 56 116 5-17-69-150-10-154-114-4-87 153-88 188-35 5 8 8 18 10 28" id="S"/><g id="j"><use transform="matrix(0.05,0,0,0.05,0,0)" xlink:href="#S"/><use transform="matrix(0.05,0,0,0.05,12,0)" xlink:href="#R"/><use transform="matrix(0.05,0,0,0.05,22.950000000000003,0)" xlink:href="#y"/></g><path d="M195-6C206 82 75 100 31 46c-4-6-6-13-8-21l49-6c3 16 16 24 34 25 40 0 42-37 40-79-11 22-30 35-61 35-53 0-70-43-70-97 0-56 18-96 73-97 30 0 46 14 59 34l2-30h47zm-90-29c32 0 41-27 41-63 0-35-9-62-40-62-32 0-39 29-40 63 0 36 9 62 39 62" id="T"/><g id="k"><use transform="matrix(0.05,0,0,0.05,0,0)" xlink:href="#D"/><use transform="matrix(0.05,0,0,0.05,14.950000000000001,0)" xlink:href="#B"/><use transform="matrix(0.05,0,0,0.05,25.900000000000002,0)" xlink:href="#C"/><use transform="matrix(0.05,0,0,0.05,36.85,0)" xlink:href="#T"/><use transform="matrix(0.05,0,0,0.05,47.800000000000004,0)" xlink:href="#B"/></g><path d="M24-248c120-7 223 5 221 122C244-46 201 0 124 0H24v-248zM76-40c74 7 117-18 117-86 0-67-45-88-117-82v168" id="U"/><g id="l"><use transform="matrix(0.05,0,0,0.05,0,0)" xlink:href="#U"/><use transform="matrix(0.05,0,0,0.05,12.950000000000001,0)" xlink:href="#s"/></g><path d="M67-125c0 53 21 87 73 88 37 1 54-22 65-47l45 17C233-25 199 4 140 4 58 4 20-42 15-125 8-235 124-281 211-232c18 10 29 29 36 50l-46 12c-8-25-30-41-62-41-52 0-71 34-72 86" id="V"/><g id="m"><use transform="matrix(0.05,0,0,0.05,0,0)" xlink:href="#V"/><use transform="matrix(0.05,0,0,0.05,12.950000000000001,0)" xlink:href="#y"/><use transform="matrix(0.05,0,0,0.05,17.950000000000003,0)" xlink:href="#A"/><use transform="matrix(0.05,0,0,0.05,22.950000000000003,0)" xlink:href="#u"/><use transform="matrix(0.05,0,0,0.05,32.95,0)" xlink:href="#C"/><use transform="matrix(0.05,0,0,0.05,43.900000000000006,0)" xlink:href="#w"/></g><path d="M182-182c0 78-84 86-111 141h115V0H12c-6-101 99-100 120-180 1-22-12-31-33-32-23 0-32 14-35 34l-49-3c5-45 32-70 84-70 51 0 83 22 83 69" id="W"/><g id="n"><use transform="matrix(0.05,0,0,0.05,0,0)" xlink:href="#Q"/><use transform="matrix(0.05,0,0,0.05,10.950000000000001,0)" xlink:href="#A"/><use transform="matrix(0.05,0,0,0.05,15.950000000000001,0)" xlink:href="#C"/><use transform="matrix(0.05,0,0,0.05,26.900000000000002,0)" xlink:href="#R"/><use transform="matrix(0.05,0,0,0.05,37.85,0)" xlink:href="#W"/><use transform="matrix(0.05,0,0,0.05,47.85,0)" xlink:href="#U"/><use transform="matrix(0.05,0,0,0.05,60.800000000000004,0)" xlink:href="#s"/></g><g id="o"><use transform="matrix(0.05,0,0,0.05,0,0)" xlink:href="#U"/><use transform="matrix(0.05,0,0,0.05,12.950000000000001,0)" xlink:href="#z"/><use transform="matrix(0.05,0,0,0.05,22.950000000000003,0)" xlink:href="#E"/><use transform="matrix(0.05,0,0,0.05,33.900000000000006,0)" xlink:href="#E"/><use transform="matrix(0.05,0,0,0.05,44.85000000000001,0)" xlink:href="#u"/><use transform="matrix(0.05,0,0,0.05,54.85,0)" xlink:href="#F"/></g><path d="M175 0L67-191c6 58 2 128 3 191H24v-248h59L193-55c-6-58-2-129-3-193h46V0h-61" id="X"/><path d="M186 0v-106H76V0H24v-248h52v99h110v-99h50V0h-50" id="Y"/><g id="p"><use transform="matrix(0.05,0,0,0.05,0,0)" xlink:href="#X"/><use transform="matrix(0.05,0,0,0.05,12.950000000000001,0)" xlink:href="#Y"/><use transform="matrix(0.05,0,0,0.05,25.900000000000002,0)" xlink:href="#A"/><use transform="matrix(0.05,0,0,0.05,30.900000000000002,0)" xlink:href="#s"/><use transform="matrix(0.05,0,0,0.05,41.85,0)" xlink:href="#u"/><use transform="matrix(0.05,0,0,0.05,51.85,0)" xlink:href="#F"/><use transform="matrix(0.05,0,0,0.05,58.85,0)" xlink:href="#C"/><use transform="matrix(0.05,0,0,0.05,69.8,0)" xlink:href="#z"/><use transform="matrix(0.05,0,0,0.05,79.8,0)" xlink:href="#w"/><use transform="matrix(0.05,0,0,0.05,85.75,0)" xlink:href="#u"/></g><g id="q"><use transform="matrix(0.05,0,0,0.05,0,0)" xlink:href="#D"/><use transform="matrix(0.05,0,0,0.05,14.950000000000001,0)" xlink:href="#A"/><use transform="matrix(0.05,0,0,0.05,19.950000000000003,0)" xlink:href="#T"/><use transform="matrix(0.05,0,0,0.05,30.900000000000006,0)" xlink:href="#P"/><use transform="matrix(0.05,0,0,0.05,41.85000000000001,0)" xlink:href="#w"/><use transform="matrix(0.05,0,0,0.05,47.80000000000001,0)" xlink:href="#J"/></g></defs></g></svg>